<svg width="98" height="124" viewBox="0 0 98 124" fill="none" xmlns="http://www.w3.org/2000/svg">
<path d="M49 98C76.062 98 98 76.062 98 49C98 21.938 76.062 0 49 0C21.9381 0 0 21.938 0 49C0 76.062 21.9381 98 49 98Z" fill="url(#paint0_radial_205_4310)"/>
<path d="M63.909 61.8616C56.8406 70.0599 44.4639 70.9771 36.2673 63.9087C28.069 56.8403 27.1518 44.4637 34.2202 36.267C41.2885 28.0687 53.6635 27.1516 61.8619 34.2199C70.0618 41.2883 70.9773 53.6633 63.909 61.8616Z" fill="url(#paint1_radial_205_4310)"/>
<path d="M63.909 61.8616C56.8406 70.0599 44.4639 70.9771 36.2673 63.9087C28.069 56.8403 27.1518 44.4637 34.2202 36.267C41.2885 28.0687 53.6635 27.1516 61.8619 34.2199C70.0618 41.2883 70.9773 53.6633 63.909 61.8616Z" fill="url(#paint2_radial_205_4310)"/>
<g opacity="0.72">
<path d="M66.5065 41.6829C66.5148 41.6383 66.429 41.4882 66.4257 41.4404C66.4455 41.4437 66.6929 41.4453 66.7045 41.4882C66.6863 41.4338 66.5808 41.4536 66.5626 41.4173C66.5214 41.1995 66.5148 40.8465 66.3267 40.9521C66.302 40.6502 66.1981 41.0346 65.8483 40.3912C65.8038 40.4308 65.6504 39.6209 65.299 39.1244C65.1638 38.8868 64.9972 38.8687 64.8339 38.7582C64.6112 39.0864 64.8108 39.3355 64.9279 39.6522C64.6013 39.8155 64.466 40.0069 64.6722 40.3665C64.7464 40.3418 64.8025 40.4407 64.8487 40.4242C64.7679 40.548 64.7036 40.9488 64.6805 41.094C65.0879 40.9059 64.9906 41.414 65.1786 41.6977C65.2858 41.861 65.6768 41.8264 65.7758 41.9583C65.8681 42.0804 65.7543 42.3839 65.8615 42.5357C66.1106 42.8953 66.2113 43.0074 66.4076 43.4644C66.5362 43.7629 66.6929 44.3073 66.8628 44.5283C67.1301 44.2958 66.9882 43.499 66.8232 42.9068C66.8315 42.9118 67.069 42.8474 67.0789 42.8524C67.0624 42.8276 66.8018 42.8903 66.7886 42.8689C66.7705 42.8079 66.7622 42.7188 66.7424 42.6594C66.7523 42.6198 67.107 42.6412 67.1795 42.6495C67.1235 42.5588 66.81 42.3889 66.7441 42.2338C66.7639 42.2173 66.8331 42.214 66.8513 42.1843C66.9635 41.9897 66.7078 41.8082 66.5065 41.6829Z" fill="#E6E6E6"/>
<path d="M64.2993 39.1111C64.3025 39.1061 64.2696 39.1325 64.2729 39.1276C64.2894 39.1424 64.2696 39.243 64.2844 39.2595C64.4048 39.3997 64.2465 39.7346 64.5896 39.6752C64.517 39.3107 64.2151 38.8785 64.0469 38.5502C64.0452 38.5469 64.2382 38.4496 64.2366 38.4446C64.2267 38.4215 64.1129 38.4512 64.1013 38.4281C63.9693 38.0586 63.6823 37.8722 63.5817 37.7287C63.6345 37.7056 63.8951 37.4764 63.966 37.4714C63.9908 37.5291 64.0221 37.6166 64.0518 37.6776C64.0848 37.6413 64.1244 37.7634 64.1244 37.7172C64.159 37.7007 64.2745 37.6116 64.296 37.5786C64.2234 37.4599 63.8291 37.5077 63.7302 37.4186C63.7664 37.4038 64.126 37.2372 64.1491 37.2322C64.0881 37.1349 63.7021 36.9996 63.4778 36.7786C63.4613 36.7538 63.4365 36.7357 63.4151 36.7159C63.3804 36.6796 63.326 36.6664 63.2881 36.6384C62.973 36.3332 62.7074 36.2656 62.6909 36.2656C62.6926 36.2672 62.6447 36.0792 62.6447 36.0808C62.6266 36.0693 62.6266 36.0429 62.6019 36.0346C62.6019 36.0379 62.7074 35.84 62.7091 35.8433C62.653 35.807 62.5854 35.906 62.5227 35.8961C62.7206 36.2111 62.4287 36.4388 62.0377 36.0841C62.0971 36.2738 62.1383 36.2491 62.1862 36.3678C62.1763 36.3843 62.4089 36.4883 62.399 36.5081C62.3924 36.5064 62.3561 36.3464 62.3495 36.3448C62.2571 36.127 62.1614 35.9324 62.0295 35.8911C61.9536 35.8218 61.7243 36.1138 61.655 36.127C61.5131 36.0445 61.4571 35.9505 61.4851 36.0297C61.4719 36.0264 61.6138 35.8449 61.6006 35.8367C61.4851 35.7674 61.2294 35.8944 61.1255 35.8334C60.9226 35.713 60.0549 35.2907 59.8652 35.355C60.0203 35.581 60.3222 35.8185 60.5663 36.0049C60.8005 36.1831 61.0876 36.292 61.3581 36.4091C61.6699 36.5444 62.5606 36.7324 62.2159 37.257C62.4155 37.4368 62.4006 37.7221 62.6876 37.4879C62.8724 37.7766 63.0604 38.3011 63.4167 38.2318C63.4992 38.5766 63.7285 38.4776 63.9578 38.6426C64.0139 38.7317 63.9133 38.9742 63.9479 39.0104C64.0106 39.0764 64.0073 39.215 64.0832 39.2711C64.098 39.3008 64.2861 39.0946 64.2993 39.1111Z" fill="#E6E6E6"/>
<path d="M57.9899 40.6252C57.9223 41.1366 57.7887 41.1003 58.2505 41.5341C58.6415 41.9003 58.8477 41.7271 59.298 41.7997C59.6659 41.8591 59.9149 42.2797 60.3224 42.0174C60.7166 41.7618 60.3323 41.5325 60.3191 41.2735C60.357 41.2422 60.5104 41.4434 60.5467 41.4104C60.6061 41.4665 60.8865 41.4154 60.9377 41.4582C60.9377 41.3626 60.9657 41.1993 60.9773 41.1003C61.0729 40.9914 60.9426 40.5642 61.0169 40.4504C61.1703 40.5427 61.2379 40.7951 61.3286 40.9551C61.6239 40.6731 61.5414 40.551 61.4325 40.2788C61.4441 40.2788 61.5909 40.2442 61.6024 40.2359C61.5777 40.1996 61.4985 40.0858 61.4688 40.071C61.4606 40.0396 61.4969 40.1534 61.4936 40.1205C61.5051 40.071 61.4292 40.0495 61.4325 40.005C61.5051 39.8747 61.6387 39.7427 61.4738 39.4969C61.4012 39.3897 61.1175 39.4573 60.9888 39.3946C60.9278 39.0367 61.5299 39.0152 61.256 38.7084C60.6638 37.816 60.1954 38.7843 60.1244 38.9889C59.9562 38.2845 59.7071 37.6989 59.0935 37.6346C58.9252 37.5273 58.6877 37.595 58.399 37.5983C58.0658 37.6016 57.246 37.3937 57.0117 37.6214C57.1932 37.981 57.5643 37.7533 57.8431 37.8655C57.8447 37.8655 57.6287 38.1608 57.6303 38.1624C57.6287 38.1624 57.7342 38.0898 57.7326 38.0915C57.7672 38.1129 57.7722 38.1641 57.8118 38.1855C57.9305 38.2828 58.0707 38.2548 58.2687 38.2185C58.3149 38.2416 58.5013 38.2185 58.5491 38.2433C58.658 38.5154 58.7091 39.0911 58.9895 38.9938C59.1413 39.1604 59.0786 39.0631 59.1199 39.3254C58.973 39.3699 58.5722 39.0004 58.5574 38.9839C58.5623 39.0136 58.3973 38.9641 58.2951 39.2148C58.2307 39.1439 58.2868 39.2742 58.2555 39.2577C58.234 39.2082 58.2489 39.1208 58.2258 39.0631C58.2076 38.9146 58.1928 38.7546 58.0394 38.5831C57.9982 38.4659 57.8761 38.2465 57.8761 38.2465C57.792 38.3158 57.7078 38.6375 57.6386 38.5666C57.6171 38.5831 57.7161 38.4808 57.7045 38.5039C57.5066 38.4857 57.3862 38.4857 57.368 38.7068C57.3433 39.007 58.2126 39.1621 58.14 39.5233C58.1153 39.5547 57.9173 39.5035 57.8975 39.5349C57.754 39.5349 57.6303 39.1654 57.4291 39.3699C57.4175 39.3814 57.0233 40.1666 57.0332 40.2145C57.1057 40.5906 57.6798 40.81 57.9899 40.6252Z" fill="#E6E6E6"/>
<path d="M63.1816 41.8308C63.1635 41.844 63.1255 41.877 63.1057 41.8853C63.1932 42.075 63.4241 42.1541 63.5396 42.3108C63.533 42.3042 63.4175 42.3785 63.4109 42.3719C63.4456 42.4181 63.4439 42.6556 63.4901 42.903C63.4901 42.9063 63.7062 42.9344 63.7045 42.9377C63.5709 43.4639 63.3086 43.0268 62.9309 42.9377C62.8451 43.2808 63.2113 43.3105 63.3185 43.5629C63.3994 43.7509 63.4291 44.0082 63.5165 44.2243C63.4802 44.2524 63.2328 44.3728 63.2014 44.381C62.8105 43.873 62.921 43.7014 62.7725 43.8416C62.6241 43.9076 62.403 43.6701 62.3272 43.8037C62.1177 43.5991 61.8389 43.647 61.6591 43.7856C60.9877 43.7377 60.0392 44.1534 60.3592 44.4305C60.224 44.4388 60.0425 44.325 60.0211 44.3151C60.0557 44.2672 60.0936 44.2309 60.0969 44.1913C60.1167 44.1237 60.3378 44.0016 60.1745 43.8796C60.1728 43.9076 60.0739 44.2359 60.0689 44.2573C59.8726 44.1897 59.4239 44.1336 59.4734 44.4932C59.6169 44.5823 59.894 44.8644 60.064 45.153C60.1481 45.3477 60.3312 45.4483 60.3411 45.6182C60.3328 45.6562 60.4483 45.831 60.4269 45.8623C60.3691 45.859 60.2339 45.7601 60.2701 45.8129C60.2635 45.8195 60.0969 45.8376 60.087 45.8442C60.0788 45.7337 60.1695 45.6182 60.1167 45.5225C60.0755 45.285 60.1151 45.1035 59.8561 45.4533C59.6565 45.7221 59.7967 46.2467 60.0623 46.4215C60.0656 46.4496 59.8941 46.3589 59.8973 46.3853C59.8363 46.4991 59.8429 46.7943 59.9072 46.9098C59.9056 46.9263 60.1646 46.6574 60.1613 46.6723C60.0706 46.6277 59.8495 46.8587 59.772 46.8141C59.7175 46.7812 59.5114 46.6772 59.4454 46.6079C59.2161 46.118 59.5575 45.1002 59.4586 44.711C59.1864 44.9353 59.1682 45.0062 59.1765 44.8C59.1501 44.8149 58.3567 45.6364 58.2709 45.765C58.3088 45.704 58.4771 45.5968 58.4688 45.4516C58.4787 45.4104 58.5216 45.2998 58.5035 45.186C58.4985 45.1877 58.1059 45.2669 58.101 45.2685C58.0762 45.0986 58.0234 44.8578 57.9839 44.711C58.0383 44.7439 58.294 44.6879 58.322 44.6862C58.5233 44.673 58.4705 44.48 58.6948 44.447C58.6552 44.3233 58.6569 44.2524 58.5958 44.1979C58.5744 44.1617 58.4622 44.1353 58.2791 44.0808C58.5826 43.8862 58.5414 44.5493 58.6371 43.7757C58.6486 43.7328 58.7493 43.6915 58.7476 43.6536C58.7493 43.6354 58.8416 43.5926 58.8433 43.5744C58.8383 43.5744 58.6123 43.6074 58.609 43.6074C58.5744 43.4243 58.3913 43.4061 58.2082 43.2099C58.0663 43.3006 58.0696 43.5398 58.0218 43.7064C57.8667 43.6437 57.6457 43.4276 57.5484 43.3583C57.4131 43.2626 57.3042 43.167 57.2333 43.0218C56.9859 43.101 56.7467 43.3732 56.8391 43.6156C56.8226 43.6255 56.9578 43.3979 56.943 43.4029C56.7945 43.3369 56.7582 43.3369 56.6312 43.1719C56.5586 43.007 56.3722 42.8684 56.2964 42.8041C56.2931 42.8123 56.4498 42.7843 56.4465 42.7925C56.3722 42.6358 56.0902 42.5698 56.0225 42.3504C55.6662 42.5055 55.9087 42.8107 55.8741 42.8288C55.5112 42.5995 55.0988 43.0383 55.0427 43.0152C55.0641 43.0004 55.2307 43.449 55.3281 43.5431C54.7474 43.1356 54.8843 44.099 54.9553 44.2392C54.7524 44.1913 54.5627 43.9868 54.6798 44.3134C54.1387 44.127 53.9754 44.3612 53.6653 44.3629C53.6983 44.3365 53.6175 44.3299 53.6521 44.3167C53.6241 43.9901 53.5366 43.5662 53.2331 44.0561C53.1325 44.0165 53.2199 44.0066 53.1886 43.9406C53.2496 43.9225 53.1045 43.7889 53.0913 43.6882C53.4657 43.4787 52.9098 43.096 52.7383 42.87C52.6706 42.9608 52.5139 43.1125 52.4743 43.2379C52.3902 43.0416 52.4892 42.7364 52.3968 42.555C52.0784 42.6177 52.2846 42.0585 52.156 41.8655C51.963 41.5784 51.6578 41.6956 51.313 41.5735C51.4186 41.4217 51.5308 41.2716 51.6924 41.1809C51.5687 40.7932 51.4285 41.044 51.1827 41.0192C50.9732 40.9978 50.7093 40.6629 50.4569 40.7405C50.48 40.8229 50.6813 41.1397 50.7109 41.2188C50.6813 41.2155 50.6598 41.2221 50.64 41.199C50.5988 41.303 50.4289 41.3393 50.3447 41.4102C50.2144 41.2485 50.4058 40.9005 50.5344 40.7471C50.3513 40.7157 50.1864 40.9021 50.1369 41.0539C49.9472 40.8444 49.802 40.5557 49.7938 40.4303C49.5711 40.5112 49.9406 41.1413 49.4226 40.7603C49.8202 39.3416 49.2049 40.5376 48.9393 41.3525C48.8255 41.2056 48.6968 41.0027 48.5896 40.8394C48.484 40.9351 48.3224 41.0077 48.2465 41.1512C48.2102 41.0803 47.9347 40.8889 47.905 40.8163C47.8457 41.0242 48.0321 41.8605 47.6411 41.7533C47.2452 41.6444 47.5867 41.1232 47.5718 40.8609C47.3228 41.0374 46.9615 40.95 46.757 41.0258C46.7108 40.7636 46.7965 40.3578 46.531 40.4188C46.7025 40.8246 46.3891 41.1116 46.2901 41.524C46.2868 41.5372 46.366 41.43 46.3644 41.4448C46.2307 41.4811 46.1483 41.6626 45.9371 41.5619C45.9206 41.6725 45.6699 41.7896 45.6353 42.1178C45.4587 42.2152 45.5627 42.4659 45.5016 42.5368C45.3317 42.7348 45.5891 42.9822 45.142 42.9608C44.9276 42.9492 44.883 42.5962 44.6224 42.7397C44.1572 42.9971 45.5594 43.4952 45.6385 43.7575C45.4752 43.8961 45.1965 44.3382 45.3713 44.574C45.3631 44.5757 45.4489 44.4751 45.4357 44.5031C45.4587 44.5394 45.4686 44.4404 45.4752 44.4223C45.4868 44.4239 45.4835 44.6153 45.495 44.6169C45.5181 44.6433 45.7111 44.5476 45.7359 44.5674C45.7309 44.6978 45.4423 44.9303 45.4489 44.9732C45.2938 44.6879 45.5033 45.1068 45.5 45.1101C45.4934 44.9551 45.6385 45.1052 45.8497 45.1778C45.6798 45.3081 45.3994 45.605 45.5907 45.3873C45.8695 45.417 46.239 45.605 46.366 45.8261C46.3462 45.8343 45.9685 45.9663 45.9503 45.9712C46.0542 46.2945 45.6798 46.3011 45.7788 46.6096C45.8711 46.8999 46.3792 46.7482 46.5903 46.6855C46.7421 47.2232 46.851 47.7 47.4316 47.6521C47.0638 47.7313 46.9417 48.2592 46.5013 48.5049C46.6217 48.848 46.5986 48.8777 47.0803 49.0064C47.2568 48.3136 47.4382 48.2542 47.8028 48.2394C47.7896 48.2658 47.8572 48.2229 47.8391 48.2509C47.9545 48.406 47.9083 48.279 48.0716 48.1833C48.0733 48.1866 48.3141 48.5198 48.3075 48.5165C48.263 48.6715 48.0898 48.759 47.9479 48.8464C48.0634 49.1532 48.3999 49.3495 48.6539 49.5112C48.5632 49.2802 48.5847 48.9784 48.8255 48.9602C48.649 48.7573 48.6688 48.5511 48.7496 48.4192C49.0366 48.3532 49.3517 48.5594 49.6701 48.4373C49.8532 48.7375 48.3405 48.6666 49.7971 49.1846C49.6486 49.3231 49.7113 49.4007 49.6651 49.5359C49.6074 49.5359 49.5183 49.427 49.4573 49.4106C49.3369 49.1829 49.2032 49.1433 49.0185 49.3528C49.129 49.5062 49.0564 49.6002 49.0152 49.757C48.9377 49.7256 48.9443 49.5392 48.8387 49.5194C48.6968 49.4402 48.5434 49.4303 48.3851 49.3545C48.3636 49.3215 48.2712 49.3957 48.2482 49.3627C48.23 49.3776 48.1739 49.5722 48.1492 49.5838C48.103 49.5623 48.1343 49.3545 48.0881 49.3347C48.0552 49.1565 47.8688 49.1318 47.7071 49.1846C47.7929 49.0889 47.5718 49.046 47.5372 49.1169C47.5141 49.1087 47.5553 49.173 47.5322 49.1648C47.4894 49.0081 47.6164 48.9256 47.5801 48.7705C47.5141 48.8711 47.1891 48.7458 47.1644 48.8629C47.1248 48.9223 47.3228 49.0724 47.2898 49.1252C46.9269 49.018 46.6151 48.8876 46.4666 48.985C46.4287 48.9322 46.4699 49.1417 46.4402 49.079C46.1301 49.2456 45.8761 48.8909 45.5957 49.0707C45.7969 49.0806 45.8398 49.079 45.919 49.2967C45.8777 49.3182 45.9074 49.211 45.8678 49.239C46.0361 49.2852 45.9668 49.5161 46.079 49.6003C46.0641 49.6712 46.0295 49.8543 46.013 49.945C45.8381 49.8939 45.5907 49.8642 45.467 49.9994C45.5726 50.1067 45.6435 50.3013 45.7161 50.331C45.7177 50.3524 45.7128 50.2155 45.7293 50.2172C45.688 50.3013 45.7903 50.4465 45.7837 50.5702C45.721 50.585 46.0938 50.5125 46.1433 50.6411C46.0476 50.7022 46.0229 50.9941 46.1615 51.0486C46.1103 51.037 46.079 50.844 45.9899 50.8226C45.9949 50.8193 46.1054 50.8523 46.112 50.844C46.1417 50.8077 46.0608 50.6791 46.0229 50.7302C46.0394 50.7467 45.9949 50.8358 46.0113 50.8539C45.9784 50.844 45.9239 50.7615 45.9157 50.7483C45.8002 50.8638 45.8579 51.1343 46.0427 51.2482C46.0113 51.3339 46.0674 51.1079 46.0212 51.1409C45.9899 51.1426 46.0526 51.1838 46.0179 51.1855C45.9932 51.1739 45.9289 51.4098 45.8959 51.3818C45.8827 51.4049 45.919 51.4758 45.9041 51.4956C45.7837 51.5038 45.5412 51.5253 45.4142 51.55C45.4076 51.4659 45.3796 51.2333 45.4489 51.3867C45.4093 51.3966 45.3251 51.3323 45.2872 51.3455C45.2097 51.296 45.0892 51.5203 45.0332 51.423C44.8896 51.4989 44.822 51.5368 44.6802 51.6177C44.6422 51.5962 44.3964 51.4725 44.3568 51.4626C44.2975 51.1277 44.6901 50.6692 44.5993 50.336C44.3898 50.5042 43.9873 50.9034 43.7976 51.1508C43.796 51.1442 43.6244 51.0799 43.6228 51.0733C43.664 50.9496 43.9989 50.8589 44.0319 50.6527C44.0715 50.618 43.9989 50.5652 44.0104 50.5257C44.1243 50.4316 44.1935 50.3722 44.1506 50.1215C44.5845 50.4168 44.5152 49.8972 44.6142 49.6596C44.7148 49.4188 45.0695 49.333 44.6983 49.0246C44.6488 49.1169 44.5152 49.1846 44.4822 49.3099C44.3717 49.1681 44.3948 49.1334 44.281 49.0048C44.53 48.754 44.0253 48.4802 43.7745 48.6979C43.405 49.0213 43.7778 49.0196 43.1395 49.0922C42.8145 49.1285 42.4648 49.2918 42.2355 48.985C41.9435 48.594 42.4054 48.5561 42.5819 48.2163C42.0656 47.7989 42.4335 47.7494 42.6083 47.2678C42.6396 47.1803 42.5902 47.0088 42.6149 46.9065C42.6446 46.7877 42.6726 46.6805 42.6809 46.5403C42.6957 46.2747 42.5456 46.349 42.3064 46.4215L42.153 46.1329C42.3576 45.9382 42.2223 45.7172 41.9666 45.7469C41.8677 45.6364 41.8578 45.2603 41.8462 45.1134C41.8297 44.8908 41.9254 44.9353 41.7637 44.7159C41.4949 45.0194 41.4932 45.2883 41.5955 45.6957C41.6153 45.9036 41.5823 46.3275 41.579 46.3341C41.4668 46.2401 41.4569 46.0619 41.3447 46.1345C41.414 45.93 41.2392 45.831 41.1237 45.6842C41.132 45.6446 41.4025 45.2108 41.3629 45.2306C41.3843 45.2438 40.9241 45.0623 40.9241 45.0722C40.6668 44.7687 40.6915 45.1283 40.6486 45.0739C40.708 45.0277 40.3913 44.6186 40.4639 44.3382C40.5365 44.2359 40.6272 44.1006 40.675 43.9901C40.6981 43.972 40.8614 44.0346 40.8878 44.0231C40.868 44.0214 40.8812 44.0082 40.8664 44.0066C40.8961 43.9324 40.7591 44.0742 40.7657 44.0396C40.8136 44.0957 40.8796 43.9307 40.9142 43.9983C40.8763 43.7344 40.7888 43.7724 40.6222 43.8565C40.6206 43.8515 40.4507 43.8895 40.4474 43.8845C40.4441 43.8779 40.6107 43.8449 40.5925 43.8697C40.5596 43.8878 40.6107 43.9835 40.581 44.0066C40.68 43.9109 40.5596 43.6404 40.4853 43.482C40.3633 43.2181 40.3682 43.4095 40.1851 43.5315C40.1851 43.482 40.1356 43.3072 40.134 43.2577C39.3966 43.3979 39.4412 42.484 38.9694 42.1937C38.9496 42.362 39.1987 43.1043 38.9265 43.0894C38.9463 43.0647 38.9496 42.9806 38.9776 42.9492C38.938 42.9014 38.811 42.9113 38.7153 42.9096C38.6048 42.6259 38.4514 41.8985 38.0803 42.263C38.0869 42.3059 38.3425 42.3422 38.3607 42.3834C38.4349 42.3719 38.3491 42.7348 38.4316 42.7216C38.3953 42.814 38.6988 42.8123 38.7203 42.9146C38.7021 42.9294 38.3458 43.0614 38.3425 43.0845C38.3623 43.0911 38.5949 42.9822 38.6131 42.9888C38.6477 43.1125 38.5273 43.2692 38.5669 43.3913C38.5784 43.5629 38.7813 43.9208 38.3557 43.8251C38.3392 43.8697 38.0522 42.9657 38.0638 42.8667C37.9598 42.9723 37.8708 42.9426 37.7685 43.0482C37.7718 42.903 37.658 42.4115 37.6134 42.2943C37.5326 42.4329 37.4996 42.4692 37.4237 42.2449C37.1301 42.3207 36.5577 43.2973 36.5957 43.0053C36.1173 43.4012 37.3726 43.1769 37.465 43.1043C37.7124 43.4936 36.5462 43.6602 36.4917 43.6041C36.4554 43.6437 36.5478 43.7014 36.5247 43.741C36.3944 43.8482 36.4901 43.6899 36.5016 43.84C36.5198 43.8235 36.3895 43.868 36.4076 43.8548C36.3763 44.0033 36.3053 44.2771 36.274 44.4355C36.1437 44.2606 36.0843 44.099 35.9622 43.9208C35.9358 44.1518 35.9111 44.1105 35.6818 44.2095C35.4905 43.9785 35.502 43.6008 35.1721 43.7278C34.8174 43.8647 35.2133 44.2309 35.2678 44.447C35.2777 44.4883 35.2628 44.3843 35.2876 44.4421C35.1935 44.3497 34.9857 44.5575 34.7696 44.7654C34.702 44.7093 34.6063 44.5608 34.5782 44.4784C34.6079 44.4437 34.4034 44.5048 34.4314 44.4685C34.3308 44.2854 34.1807 44.0148 34.0223 44.2887C33.9333 44.4421 34.1197 44.7637 34.2038 44.7885C34.1527 44.8941 34.184 45.0194 34.1576 45.1811C33.9778 45.4153 34.123 45.8294 34.377 46.184C34.5354 46.6112 34.8323 46.9923 34.9082 47.1704C34.895 47.1902 34.8422 47.3255 34.8224 47.3436C34.4727 47.0962 34.4133 46.0768 33.9531 46.0801C34.0685 46.2665 34.2797 46.7102 34.245 46.9379C34.1922 47.2925 34.1065 47.1127 33.9762 46.8273C33.3097 47.1869 34.1312 47.3568 34.1939 47.5581C34.2054 47.5944 34.3572 47.4839 34.3226 47.5432C34.0933 47.4674 33.7172 47.474 33.4895 47.6769C33.6067 47.8814 33.8046 48.0876 33.9795 48.1585C33.9894 48.3284 34.3885 48.5066 34.3572 48.6831C34.2681 48.6287 34.1708 48.4307 34.0801 48.3218C34.0504 48.3301 34.0273 48.2377 33.9927 48.2328C33.9597 48.2064 33.826 48.472 33.8013 48.4555C33.7898 48.467 33.7848 48.4126 33.7782 48.4241C33.6199 48.3697 33.4829 48.274 33.3526 48.3928C33.12 48.6039 33.5093 48.9982 33.7551 48.8217C33.7766 48.8398 33.7535 48.721 33.7568 48.7095C33.7815 48.7903 33.6001 48.9338 33.5803 49.0542C33.6347 49.0312 33.9729 48.7755 34.0306 48.7491C34.1378 48.8415 34.2566 49.1532 34.2747 49.2918C34.2648 49.2934 34.1988 49.2786 34.189 49.2802C34.156 49.1829 34.019 49.2571 33.8805 49.2159C33.8343 49.2555 33.7997 48.9685 33.7617 49.0081C33.7023 48.9668 33.5572 48.9256 33.5093 48.8711C33.4219 48.985 33.3427 49.0856 33.1844 49.1219C33.1464 49.1021 33.2372 49.1021 33.2091 49.0889C33.1943 49.0691 33.1827 49.2275 33.1761 49.2077C33.2734 48.7392 33.0161 48.2295 32.8446 47.7511C32.8874 47.5202 32.7159 47.4162 32.4305 47.05C32.6219 46.9379 33.0128 46.7102 32.9782 46.4727C32.5575 46.4793 32.452 45.9943 32.4635 45.638C32.4635 45.6364 32.3711 45.6644 32.3711 45.6628C32.6334 45.6759 32.5344 45.224 32.6895 45.0986C32.7307 45.0788 32.8462 44.9732 32.8924 44.9567C33.1563 44.927 33.252 45.5605 33.4582 45.1794C33.4928 45.2388 33.7584 45.4434 33.7914 45.5093C34.1296 44.9551 33.3691 44.7011 33.1761 44.3167C32.9881 43.9423 32.706 43.9522 32.9386 43.6833C33.0689 43.5332 33.6644 43.4193 33.4104 43.1158C33.1266 43.1637 32.9023 43.4655 32.701 43.6222C32.6532 43.5991 32.8033 43.553 32.7852 43.5381C32.7769 43.5266 32.6961 43.7658 32.6912 43.7625C33.4928 43.4094 32.4998 42.4296 31.9818 43.2494C31.8862 43.4012 31.8218 44.1023 31.5694 44.0544C31.2082 43.9868 31.6816 43.2511 31.7591 43.0746C31.68 43.1488 31.4606 43.1835 31.3765 43.2544C31.3847 43.2214 31.4738 43.0334 31.5068 42.9492C31.4424 42.9905 31.3847 42.9492 31.3187 42.9872C31.1389 42.6919 31.4688 42.6078 31.5282 42.3207C31.581 42.0684 31.1752 41.5784 31.2098 41.3228C31.096 41.651 31.0037 41.9644 30.9426 42.3339C30.8964 42.6144 31.1719 42.8206 31.0581 43.0977C30.8387 43.6321 30.4494 44.0412 30.5385 44.6136C30.4989 44.5823 30.5632 44.5707 30.5269 44.5378C30.3768 44.6483 30.4461 44.8033 30.4197 44.96C30.2251 45.4747 30.2003 46.1857 30.1541 46.862C30.1079 46.9906 29.9644 47.1243 29.9298 47.2546C29.8374 47.5911 30.0848 47.7329 30.098 47.9853C30.0931 48.1024 29.8193 48.2031 29.8143 48.2856C29.8028 48.3598 29.9958 48.4818 29.9727 48.566C29.9727 48.566 29.6345 48.4654 29.6329 48.4654C29.6296 48.4802 29.7186 48.528 29.7153 48.5429C29.7054 48.5759 29.6296 48.5907 29.618 48.627C29.5405 48.8975 29.5702 50.0093 29.9892 49.9087C29.9941 50.1215 30.3108 50.2898 30.2119 50.5141C30.1822 50.4993 29.8176 50.4976 29.7846 50.4663C29.783 50.4663 29.6972 50.3656 29.6955 50.3656C29.689 50.3244 29.9875 50.0423 29.971 50.0027C30.0634 50.0786 30.0881 50.3195 29.8539 50.0539C29.811 50.0786 29.6642 49.9153 29.6609 49.9434C29.6527 49.9302 29.9842 50.1364 29.9743 50.1232C29.9479 50.2172 29.8638 50.2782 29.8688 50.3953C29.8292 50.4151 29.6032 50.4283 29.5801 50.4498C29.6312 50.5999 29.8325 50.7549 29.9199 50.9298C30.0123 51.2333 30.1442 51.4313 30.2449 51.4808C30.2366 51.484 30.3422 51.649 30.4032 51.5962C30.4032 51.5962 30.1723 51.3092 30.1739 51.3092C30.1805 51.3026 30.451 51.4989 30.4593 51.4923C30.6721 50.811 30.8667 50.3623 31.0812 50.9067C31.1455 50.9298 31.0168 51.1607 31.0317 51.4214C31.0201 51.5962 31.068 51.7975 31.1323 51.8898C31.1389 51.9261 31.2115 51.9195 31.2214 51.9542C31.228 51.9344 31.3451 52.0449 31.3534 52.0235C31.36 52.0268 31.0432 51.9311 31.0515 51.9344C31.0614 52.1323 31.3039 52.1224 31.388 51.9575C31.4738 52.0399 31.8647 52.5975 31.8169 52.8895C31.7558 52.9373 31.4919 52.7559 31.3435 52.6849C31.129 52.5843 30.8502 52.3336 30.6457 52.1719C30.677 52.2841 30.7777 52.2643 30.7942 52.3946C30.5418 51.8618 30.0782 52.0597 29.844 51.4511C29.8325 51.5649 30.0139 51.71 30.0222 51.8882C30.0073 51.8849 29.689 51.8981 29.6741 51.8964C29.6939 51.9261 30.0502 51.9179 30.065 51.9492C30.098 52.5183 29.9892 53.3002 30.1376 53.6235C30.1393 53.6268 30.2547 53.4569 30.2861 53.452C30.3108 53.4701 30.6638 54.0871 30.4939 54.158C30.3224 53.9172 30.5352 53.9056 30.4131 53.7769C30.3488 53.8231 30.2531 53.9567 30.2416 54.0689L30.5154 54.1118C30.4214 54.6825 30.8057 55.5535 31.0234 56.1177C31.063 56.2216 30.8189 56.8022 30.8931 56.8649C30.9014 56.8732 31.0482 56.7 31.0564 56.7066C31.1455 56.916 31.2263 57.0464 31.2412 57.1008C31.3402 57.0068 31.3303 57.2031 31.355 57.4983C31.3055 57.4736 31.4655 57.4835 31.416 57.4621C31.3995 57.4291 31.4655 57.3037 31.4078 57.2212C31.4325 57.2724 31.2164 57.4291 31.2395 57.4769C31.2247 57.4703 31.2115 57.3301 31.1967 57.3202C31.0581 57.561 31.3138 57.9668 31.5266 58.074C31.5579 58.145 31.553 58.1153 31.576 58.1697C31.6453 58.3957 31.9653 58.5458 32.0693 58.7751C32.1583 58.9731 32.353 59.5768 32.3728 58.9912C32.3992 59.0093 32.5658 58.9797 32.6054 59.011C32.6252 59.0638 32.6021 59.1281 32.6202 59.1776C32.6268 59.1512 32.5707 59.2353 32.5806 59.204C32.6433 59.2568 32.6928 59.2749 32.7588 59.3393C32.9039 59.6543 32.9864 59.9628 32.9848 59.7318C33.0046 59.7747 33.0656 59.8605 33.0524 59.8853C33.1151 60.0172 33.5704 60.0816 33.8574 60.2713C33.8871 60.3075 33.803 60.489 33.8343 60.5269C33.8739 60.5517 33.9646 60.5236 34.0042 60.5484C34.189 60.6655 34.1906 60.8535 34.2764 61.0202C34.2813 61.0977 34.3391 61.1257 34.2483 61.1983C34.3589 61.3649 34.7086 61.3055 34.8339 61.4474C34.8438 61.4919 34.7762 61.6305 34.8207 61.6585C34.8653 61.7493 34.7086 61.9159 34.7581 62.0082C34.9263 62.32 35.3205 62.4305 35.6439 62.6664C35.6191 62.6103 35.469 62.5955 35.4608 62.5361C35.5828 62.4833 35.6835 62.6664 35.5878 62.3744C35.5927 62.3316 35.6422 62.1188 35.6521 62.0792C35.9177 62.2722 36.1222 62.6697 36.213 62.965C36.2014 62.9716 36.048 62.9155 36.0431 62.9237C36.0315 62.9188 35.8781 63.026 35.8682 63.0293C35.8797 63.0376 36.2575 63.0013 36.2657 63.0095C36.2624 63.0359 36.1173 63.0557 36.1602 63.0904C36.175 63.125 36.0579 63.3147 36.0876 63.3675C36.109 63.3543 36.1437 63.3015 36.1321 63.2669C36.4785 63.483 37.4171 63.8755 38.1446 64.2203C38.1446 64.222 38.0242 64.2203 38.0242 64.222C38.166 64.4133 38.2931 64.8009 38.6477 64.4034C38.6147 64.3473 38.6593 64.6014 38.6312 64.5469C38.7648 64.6277 39.1558 64.4067 39.23 64.4826C39.1145 64.2896 38.4663 64.1791 38.3871 63.9102C38.4333 63.8624 38.6263 63.8788 38.6626 63.8673C38.6972 63.8755 38.6774 63.9267 38.7038 63.9234C38.8902 64.0158 38.9595 64.2599 39.2036 64.2467C39.202 64.222 39.2993 64.2384 39.3059 64.2088C39.3422 64.2516 39.4989 64.3556 39.5038 64.3556C39.489 64.3374 39.3422 64.4166 39.3174 64.3869C39.3339 64.3242 39.3636 64.1015 39.3719 64.0438C39.4873 64.151 39.6902 64.3688 39.8008 64.4809C39.7909 64.509 39.6391 64.6706 39.621 64.697C39.5319 64.6987 39.5385 64.6277 39.4247 64.6459C39.649 64.8933 39.6374 65.0979 39.7051 65.1606C39.7315 65.1606 39.8618 65.3651 39.8882 65.3667C39.8882 65.3552 39.8304 65.0665 39.8403 65.0616C39.9525 65.1259 40.0894 65.1589 40.2247 65.215C40.3501 65.2661 40.8548 65.4311 41.0412 65.4806C40.8598 65.1935 40.3286 65.1078 40.1653 64.7795C40.162 64.7465 40.1769 64.7119 40.1736 64.6673C40.3121 64.6904 40.1686 64.5073 40.2742 64.4958C40.167 64.3523 40.2709 64.283 40.1538 64.1576C40.3567 64.1494 40.5282 64.3506 40.7196 64.382C40.7921 64.1791 40.708 63.925 40.8202 63.8393C40.7674 64.4661 42.3708 63.6116 41.579 64.4578C41.7835 64.4743 43.2582 64.2764 42.6924 64.8785C42.4631 65.1226 41.899 64.8554 42.0953 65.4146C42.1596 65.5977 42.4351 65.7132 42.5836 65.8253C42.7386 66.02 43.1461 66.0117 43.377 66.2031C43.7168 66.5528 43.9445 66.8118 44.4971 66.9899C44.7841 67.0823 45.1041 67.4815 45.3482 67.5392C45.6056 67.6003 45.8233 67.3627 46.0889 67.4007C45.9916 67.3413 45.8596 67.2703 45.7771 67.1895C45.8315 67.1351 45.98 67.2934 46.0493 67.2802C46.0856 67.2901 46.1301 67.2802 46.1532 67.2604C46.4006 67.2571 46.7899 67.2621 47.0126 67.1895C46.9384 67.0114 46.5244 66.8167 46.3528 66.7623C46.5458 66.5808 46.4897 66.3301 46.2324 66.2674C46.366 65.9441 46.6679 66.1305 46.8807 66.0134C47.011 65.9424 47.0126 65.6835 47.1397 65.5812C47.0044 65.596 47.0786 65.5185 46.9318 65.4641C46.9038 65.4542 46.9335 65.1391 46.8312 65.1078C46.7009 65.0682 46.465 65.5317 46.3578 65.507C45.6451 65.3486 46.0163 64.9544 46.4039 64.6987C46.2307 64.3737 45.3763 65.347 44.9045 65.1177C44.055 64.7053 44.9474 64.3523 45.1635 64.0125C45.2855 63.9267 45.4225 63.9333 45.4835 63.8821C45.5379 63.8772 45.627 63.7881 45.6765 63.7997C45.6287 63.6644 45.4686 63.77 45.3334 63.704C45.3185 63.7106 45.302 63.5489 45.2872 63.5522C45.3202 63.5275 45.5759 63.4994 45.6023 63.4714C45.5528 63.4087 45.2822 63.4434 45.1866 63.4137C45.1849 63.4021 45.2014 63.3427 45.2014 63.3312C45.1536 63.3312 45.1354 63.1365 45.1074 63.1382C45.0596 63.1283 45.1074 63.1563 45.0596 63.1514C45.0299 63.1068 45.0381 63.1679 45.0084 63.1233C44.9886 63.0557 44.8567 62.9138 44.8633 62.8495C45.0497 62.9584 45.0892 63.1728 45.3053 63.1794C45.3433 62.9617 45.2839 62.8396 45.1189 62.7522C45.1255 62.7143 45.0579 62.5345 45.0777 62.4949C45.4554 62.4454 45.6633 62.5542 46.0509 62.866C46.3479 63.1052 46.7124 63.5605 46.267 63.7337C46.3083 64.189 46.4072 63.6628 46.6151 63.5819C46.9681 63.445 47.1743 63.5126 47.5553 63.6331C47.7582 63.6974 48.0634 63.666 47.8275 64.0059C47.7797 64.0751 47.7005 64.3886 47.5867 64.3787C47.3689 64.2747 47.3211 64.0768 47.2287 64.1444C47.2353 64.151 47.1166 63.8228 47.1232 63.8277C47.0968 63.8244 47.2056 64.0092 47.1842 64.0092C47.3063 64.3457 47.5059 64.3424 47.7962 64.3704C47.8605 64.3836 47.9017 64.57 47.9677 64.575C48.0337 64.5865 48.1838 64.4001 48.2416 64.4248C48.3026 64.504 48.263 64.7069 48.3521 64.7449C48.324 64.7515 48.3108 64.6871 48.2828 64.697C48.296 64.7597 48.3653 64.8735 48.4445 64.8521C48.5748 64.9742 48.7084 64.9164 48.8733 64.824C48.9707 64.8339 48.8717 64.7663 48.87 64.6871C48.8717 64.6871 48.8865 64.796 48.8882 64.796C48.9393 64.8966 49.1868 64.7152 49.2313 64.8174C49.3864 64.5865 49.6486 64.5634 49.835 64.4182C50.0379 64.3226 50.1649 64.0636 50.3629 63.9498C50.4223 63.93 50.5674 64.0867 50.6334 64.0702C51.1266 63.9465 51.9019 63.7634 52.1015 63.2091C51.9415 63.3724 52.0636 63.2982 51.9366 63.1596C52.0075 63.1019 51.897 63.097 51.9184 63.0739C51.7502 62.8561 51.8656 62.8611 51.8162 62.7538C51.8392 62.5608 51.8739 62.2276 51.9217 62.099C51.7584 62.094 51.511 62.5015 51.4401 62.6928C51.0277 62.4784 51.511 61.7295 51.4829 61.3633C51.4516 60.9525 51.0854 60.6737 50.7901 60.3653C50.3348 60.6111 50.3497 61.1043 49.7707 60.6408C49.7278 60.8272 49.609 60.6919 49.4276 60.7232C49.289 60.7232 49.0267 60.7991 48.9327 60.7909C49.0383 60.7298 49.7427 60.1838 49.7361 60.1162C49.7113 59.8457 49.3616 59.9084 49.2247 60.0436C49.2197 60.0354 49.1966 60.0189 49.1917 60.0106C49.1373 60.0634 48.9591 59.9991 48.9789 60.009C48.9558 60.0436 49.1175 60.0205 49.1026 60.0667C48.9707 59.9133 48.9212 59.6857 48.7843 59.5916C48.7331 59.557 48.5467 59.6642 48.5022 59.6725C48.2168 59.303 48.042 58.8658 47.6708 58.7998C47.6791 58.7867 47.4828 59.0093 47.4927 58.9978C47.3838 58.7537 47.3541 58.719 47.1957 58.8988C47.1924 58.8988 47.0786 59.0506 47.0753 59.0506C46.8312 58.8625 46.7767 58.5689 46.531 58.7998C46.6646 59.0902 46.6613 59.0836 46.7075 59.2914C46.7108 59.3244 47.0093 59.3277 47.0126 59.3607C47.0126 59.3788 46.9186 59.4201 46.917 59.4399C46.8889 59.7632 46.559 59.6213 46.8427 59.8919C46.9813 60.0238 46.8774 60.2564 46.9895 60.2861C47.0588 60.3801 47.0984 60.4593 47.1908 60.5863C47.1908 60.6622 47.2436 60.7463 47.3112 60.8222C47.3425 60.8569 47.5619 60.7298 47.618 60.7381C47.9974 61.2824 48.3603 61.7905 47.8523 61.3699C47.8787 61.1934 47.5223 61.2577 47.3046 61.1637C47.3096 61.101 47.3293 61.0185 47.166 61.0812C47.1693 61.0861 47.1149 61.101 47.1182 61.1059C46.9598 61.0581 46.7454 61.1406 46.5854 61.1125C46.587 61.0878 46.6052 61.0713 46.5755 61.0845C46.2918 61.04 45.8447 60.8371 45.8299 60.8239C45.8381 60.0387 44.0566 61.0169 43.8042 59.9941C44.0748 59.8292 44.6818 59.971 44.4344 59.5883C44.4014 59.5933 44.3568 59.3904 44.3288 59.3887C44.6076 59.0192 43.9626 58.79 43.5453 58.5986C43.6145 58.0345 43.2368 58.2753 42.8772 58.206C43.0339 58.3644 43.1576 58.4534 43.3754 58.5293C43.3984 58.5574 43.4776 58.5227 43.5205 58.5755C43.4496 58.6514 43.3655 58.7339 43.2962 58.8163C43.1626 58.6101 42.798 58.5491 42.6265 58.6695C42.699 58.8312 43.0438 58.978 43.1593 59.0918C43.1626 59.105 43.118 59.2056 43.1213 59.2172C42.9861 59.2271 42.666 58.9928 42.5869 59.0357C42.3543 59.1611 42.7436 59.4547 42.9333 59.4531C42.6611 59.8193 42.2916 59.2799 41.965 59.2419C41.7819 59.2205 41.5889 59.6791 41.3827 59.6576C41.2276 59.6428 41.0165 59.3591 40.8532 59.3228C40.6536 59.2782 40.3303 59.2089 40.101 59.1463C40.0465 59.1182 40.0465 59.0671 39.9971 59.0341C39.8733 58.912 39.8453 58.9763 39.8882 58.8906C39.941 58.9186 39.9525 58.8246 39.9789 58.818C39.9393 58.785 39.9278 58.7883 39.903 58.7652C39.974 58.6827 40.1488 58.7866 40.2907 58.8031C40.2577 58.7322 40.0894 58.6976 40.0383 58.6398C39.9674 58.6745 39.7315 58.6398 39.6622 58.6761C39.5616 58.4254 39.8948 58.1565 40.0795 58.018C39.8931 57.6551 39.5962 57.8794 39.3834 58.0394C39.3801 58.0427 39.489 58.2934 39.4873 58.2967C39.4609 58.3 39.362 58.107 39.3356 58.1318C39.2333 58.178 39.3818 58.2637 39.2811 58.4419C39.235 58.5244 39.169 58.5607 39.1723 58.6398C39.1211 58.6712 39.3059 58.6382 39.329 58.7867C39.3257 58.7966 38.9925 58.7768 38.9859 58.7867C38.9116 58.9236 38.5784 59.3755 38.4184 59.3376C37.9236 59.2188 38.4927 58.8807 38.5157 58.6877C37.9978 58.6761 38.0555 58.9351 37.7438 58.917C37.6151 58.846 37.3627 59.0489 37.2489 58.9797C37.2175 58.818 37.7207 58.4369 37.6233 58.206C37.4155 58.2044 37.1433 58.4567 36.9899 58.5772C36.8794 58.498 36.6517 58.4139 36.627 58.3627C37.1037 57.9223 36.9866 58.2654 36.7524 58.2555C36.7656 58.1945 36.7441 58.2077 36.7375 58.1664C36.6748 58.1796 36.66 58.1582 36.5891 58.1945C36.5709 58.1697 36.5132 58.1714 36.5099 58.1301C36.8711 58.3083 36.881 57.952 37.1714 57.8728C37.0823 57.8167 36.4258 57.109 36.3845 56.9078C36.7441 57.0084 37.1598 57.086 37.2109 57.0563C37.2522 57.0926 37.2192 56.2051 37.1367 56.0649C37.8229 56.6125 37.7124 56.6901 38.3277 57.4835C38.2634 58.3215 40.8301 57.3251 40.5925 56.9193C40.3138 56.6653 39.8766 57.2707 39.8074 57.4307C39.7958 57.3895 39.4148 57.2212 39.3504 57.241C39.4412 57.142 39.7001 57.0051 39.4708 57.0695C39.3669 56.8187 40.1752 56.888 39.3917 56.6604C38.9859 56.8897 39.3042 56.8699 38.8589 56.9787C38.7929 56.8237 39.235 56.2166 39.23 56.2265C39.1822 56.1952 37.884 55.57 38.6758 55.5766C38.6345 55.4199 37.6035 55.1015 37.5359 55.0471C38.4778 55.5304 37.8328 54.1959 37.6431 54.0508C37.6976 54.0706 37.6778 54.219 37.724 54.2355C37.7339 54.2454 37.7751 54.1877 37.78 54.1992C37.7866 54.1926 37.8691 53.9452 37.8724 53.9402C38.3986 54.1069 38.392 54.1745 38.6626 54.3774C39.0123 54.0095 38.7714 53.5328 38.9644 53.3464C39.0947 53.4899 39.131 53.5246 39.0387 53.5641C39.037 53.5658 38.8638 53.325 38.8605 53.3266C38.9166 53.2755 39.2762 53.3975 39.423 53.3942C39.3009 53.2095 39.291 53.1303 39.4428 53.2441C39.164 52.4771 38.9413 54.1398 38.7962 52.6783C38.938 53.1683 38.778 52.7526 38.7417 52.6008C39.004 52.9076 39.4642 53.3151 39.4675 52.8631C39.5583 52.8433 39.9476 52.9274 40.0515 53.0709C41.2012 53.0297 40.2907 52.9621 39.8915 52.2956C40.0086 52.1901 40.0729 52.1769 39.8486 52.2181C39.8008 52.3006 39.5104 52.3187 39.4873 52.3699C39.3752 52.1175 39.5434 51.6127 39.7579 51.2218C39.9525 51.6078 40.8367 53.0594 41.1138 53.0759C41.2491 53.5163 41.1913 53.5872 41.2491 53.7538C41.6615 53.9073 41.4322 52.4606 41.0049 52.5249C40.9752 52.6057 41.2524 52.9406 41.2639 52.972C41.2326 52.9917 40.807 53.1221 40.7492 53.1864C40.5628 52.9109 40.6074 52.2296 40.6635 51.9179C41.1155 52.1026 40.6173 52.5513 41.1303 52.4688C41.2111 52.6371 40.7806 51.5352 40.5678 51.1393C40.906 51.4148 41.1979 51.9443 41.1319 52.0927C41.1847 52.0284 41.2326 51.8222 41.2887 51.7183C41.452 51.6952 41.5493 53.0247 41.7967 52.7311C41.8413 52.8169 41.96 52.0713 42.0491 51.6177C42.0557 51.6243 41.734 51.4906 41.7456 51.4956C41.7637 51.4593 41.9848 51.5154 41.9666 51.4824C42.0029 51.3323 41.9056 51.2168 41.9732 51.1706C42.544 52.1389 41.9237 51.2564 42.153 51.875C42.4038 51.6638 42.3262 51.9723 42.4434 52.0795C42.6248 51.5137 43.0289 52.1587 43.1279 51.941C43.0388 51.649 42.5456 51.1145 42.9201 50.7203C42.963 50.7022 42.8838 50.5735 42.8821 50.5454C42.9267 50.5108 42.8475 50.5933 42.9069 50.5619C42.9201 50.7137 43.0405 51.8634 43.4364 51.7991C43.3044 51.9525 43.2863 52.0647 43.1758 52.0795C43.2698 52.1026 43.1923 51.8931 43.2797 51.8321C43.278 51.8519 43.4793 52.1142 43.4776 52.1356C43.4463 52.1587 43.2285 52.0927 43.189 52.1158C43.2351 52.1505 43.3918 52.1538 43.4133 52.1818C43.4133 52.2297 43.4925 52.3996 43.4958 52.4408C43.405 52.5233 42.8112 52.4556 42.6891 52.482C42.831 52.6058 43.1758 52.9027 43.4083 52.8235C43.6013 52.7575 43.6426 52.4507 43.8488 52.322C43.8818 52.3303 43.8158 52.0795 43.8405 52.1043C43.8917 52.0663 44.0121 52.3517 44.0731 52.3303C44.0929 52.355 44.0335 52.3138 44.0484 52.3385C44.0583 52.3616 44.276 52.2973 44.2859 52.322C44.3436 52.4886 44.0814 52.6816 43.9543 52.8037C44.0269 52.8086 44.2925 52.7212 44.3717 52.7295C44.3783 52.7493 44.1177 52.9142 44.121 52.9472C44.0764 53.028 44.2975 53.32 44.2975 53.4041C43.7679 53.4767 44.215 53.8462 44.6901 54.125C44.7082 54.1481 44.5861 54.0079 44.5911 54.0178C43.8521 54.5885 45.2443 55.3787 45.1123 55.5139C44.9309 55.4578 44.789 55.5783 44.6472 55.7053C44.5449 55.6607 44.9804 55.7845 45.1717 55.9214C45.0579 55.9807 44.6785 56.3239 44.5845 56.3816C44.4591 56.2529 44.4393 56.0401 44.436 56.0616C44.0665 56.1556 44.1424 55.9939 44.4905 56.2133C44.4113 56.1606 44.2876 56.2628 44.2067 56.2612C44.1342 56.177 43.9412 56.2727 43.9115 56.1655C43.9346 56.1094 44.0484 56.0682 43.984 56.083C43.9725 56.0814 43.8224 55.8587 43.8306 55.8521C44.1506 55.608 44.6769 55.0372 44.4608 55.2121C44.4047 55.1461 44.1655 55.1989 44.0484 55.2055C43.7432 54.9267 43.5073 54.5225 43.0372 54.6578C43.1609 54.7832 43.2252 54.8722 43.2962 55.0471C42.9564 55.0933 42.8458 55.2681 42.4994 55.156C42.3295 55.4562 42.4813 55.9032 42.7799 55.956C42.9531 56.0649 43.2731 55.5882 43.2879 55.961C43.25 55.9824 43.3605 56.2232 43.3341 56.2529C43.2879 56.2397 43.2566 56.0104 43.2879 56.0385C43.278 56.0335 43.2021 56.0698 43.0817 56.1276C43.1675 56.2282 43.0636 56.4674 43.1725 56.5894C43.1296 56.5828 43.283 56.4014 43.2483 56.4096C43.0092 56.469 42.8838 56.4179 42.699 56.5663C42.9349 56.9705 43.382 56.6439 43.6294 57.0761C43.7729 56.9144 43.8339 57.0926 43.9923 57.1519C44.0302 57.1882 44.1539 56.9226 44.182 56.9193C44.215 56.9408 44.0896 57.2938 44.1226 57.3119C44.1754 57.3631 44.3272 57.3812 44.3981 57.3829C44.408 57.3862 44.5762 57.1651 44.5861 57.1684C44.7395 57.368 44.8501 57.6633 45.0563 57.6897C45.0266 57.5676 44.8616 57.4835 44.8088 57.3581C44.8187 57.3548 45.0464 57.1899 45.0563 57.1866C45.2245 57.2592 45.3169 57.3103 45.4917 57.2278C45.5016 57.1932 45.5627 57.1387 45.5577 57.1024C45.6254 57.1305 45.66 57.2328 45.7309 57.2542C45.7161 57.053 45.4752 56.86 45.34 56.733C45.5726 56.5053 46.0328 56.5696 46.2225 56.855C46.2951 56.7676 46.2571 56.662 46.2522 56.5433C46.1549 56.5103 46.2786 56.4426 46.2142 56.4096C46.7075 56.1869 46.7339 55.8405 46.6349 55.4116C46.7207 55.4826 47.9809 55.9544 47.3689 55.349C47.3129 55.3952 47.4712 55.4974 47.4267 55.5502C47.4069 55.5255 47.4349 55.3226 47.4415 55.2698C47.458 55.2483 47.43 55.2022 47.425 55.1675C47.5223 54.7931 47.8275 54.1332 47.1842 54.4038C47.1083 54.4368 47.0984 54.643 47.0605 54.6957C46.8873 54.7023 46.5673 54.8178 46.3363 54.7914C46.4353 54.7634 46.5095 54.5753 46.267 54.6858C46.234 54.6726 46.2109 54.6957 46.1796 54.6644C46.0691 54.4038 46.2984 54.3378 46.4171 54.3312C46.3413 54.2322 46.14 54.0788 46.0163 53.96C45.9982 53.8891 45.9338 53.7472 45.9239 53.6862C46.0575 53.6648 46.1664 53.6136 46.3281 53.6565C46.3446 53.5031 46.1549 53.5295 46.1829 53.4107C46.0311 53.1633 45.7012 53.5081 45.4225 53.6648C45.4109 53.6549 45.5264 53.3893 45.5198 53.3728C45.5099 53.3497 45.467 53.2128 45.4637 53.188C45.4802 53.1732 45.3136 53.3052 45.3367 53.2986C45.3862 53.3184 45.4967 53.0825 45.5495 53.1336C45.5379 53.094 45.5247 53.2639 45.5181 53.2293C45.7029 53.2458 45.7408 53.1287 45.8431 52.8994C45.8217 52.84 46.0048 52.8829 45.9602 52.8053C46.0575 52.7889 45.985 52.5975 46.1087 52.581C46.6646 52.5002 46.4089 52.5051 46.2769 51.9938C46.5095 51.9195 46.8691 52.3534 47.0869 52.4886C47.1248 52.2725 46.7355 51.7628 46.5936 51.5104C46.625 51.5088 46.6563 51.4989 46.6943 51.5005C46.8312 51.5302 47.0093 51.4214 47.1331 51.3867C47.6279 51.4544 48.3504 51.8486 48.4098 51.87C48.39 51.7925 48.9492 51.2845 48.9839 51.3191C48.5632 51.6028 49.8598 51.2168 49.6915 51.0172C49.5942 50.9941 49.4094 50.9809 49.4507 51.0865C49.4045 51.0832 49.5447 50.4877 49.6569 50.4234C49.642 50.4828 49.741 50.5768 49.7641 50.6626C50.0924 50.5883 50.0528 50.3772 49.9785 50.2221C50.0577 50.3442 50.099 50.4069 50.381 50.2337C50.0429 49.6316 50.5097 48.9965 50.1831 48.3796C50.0577 48.4571 49.8268 48.3301 49.7921 48.1932C50.3365 48.0992 50.0808 47.7956 49.6602 47.629C49.647 47.6142 49.609 47.6769 49.5843 47.6769C49.3781 47.6109 49.0465 47.4278 48.8981 47.5944C48.8964 47.5944 48.8865 47.5169 48.8717 47.5367C48.8156 47.5647 48.6853 47.6884 48.5946 47.7923L48.9657 48.0546C49.0284 47.9408 48.8189 47.7775 48.8173 47.7643C48.809 47.761 48.7018 47.4377 48.5797 47.3717C48.9212 47.375 49.7328 47.4756 50.3744 47.1985C50.4206 47.1902 50.3546 47.0665 50.3959 47.0599C50.4635 47.1721 50.518 47.4641 50.6219 47.5301C50.9815 47.7593 50.9402 47.3305 50.9732 47.2711C51.0458 47.1441 50.9122 46.8636 51.0128 46.7713C51.0409 46.7795 51.0656 46.7927 51.125 46.7053C51.1233 46.7036 51.1233 46.6607 51.1217 46.6591C51.2388 46.5667 51.4714 46.6228 51.605 46.5288C51.7007 46.4892 51.7865 46.4595 51.8046 46.4611C51.6759 46.5915 51.8623 46.5882 52.0982 46.5816C51.8706 46.6723 52.118 47.0583 52.0784 47.3404C52.0537 47.3074 51.8244 47.2348 51.8112 47.2232C51.7766 46.9857 51.4401 46.9478 51.1976 47.2496C51.313 47.3618 51.4516 47.7181 51.7056 47.8682C51.6759 48.2509 51.2784 47.9556 51.2685 47.9672C51.384 48.0761 51.0013 48.6814 51.0046 48.6963C51.1464 48.6649 51.8986 48.8959 51.9745 48.9866C51.7683 49.2786 52.8933 50.1512 52.9576 50.039C52.7581 50.2403 52.9082 50.1578 52.5947 50.3211C52.7795 50.6675 52.8537 50.3129 52.8026 50.6725C52.7432 50.7005 53.0434 50.7962 53.0418 50.8671C53.0401 51.0337 53.1572 51.3999 53.248 51.5533C53.342 51.3752 53.3568 50.9694 53.4855 50.7896C53.7395 51.0651 53.7692 51.2053 54.0793 51.2185C54.2493 51.3966 54.4571 51.5451 54.4373 51.5055C54.5462 51.4824 54.6468 51.2713 54.7507 51.235C54.8497 51.3999 54.7986 51.5203 55.1021 51.4791C55.3264 51.4478 55.5161 51.1789 55.8081 51.4296C55.846 51.4181 55.8031 51.4676 55.8427 51.4725C56.1314 51.8948 56.4828 51.7793 56.303 51.3141C56.2733 51.2366 56.4597 50.9215 56.3063 50.811C56.3904 50.8391 56.5603 51.0106 56.6411 51.0783C56.5553 50.8655 56.2287 50.5323 56.2766 50.3096C56.3656 50.458 56.6824 51.2845 56.9512 51.4742C57.1904 51.7001 57.8255 51.5896 57.7529 51.1112C57.7282 50.9512 57.4791 50.8341 57.3504 50.7022C57.3554 50.6791 57.4148 50.5504 57.3933 50.5273C57.3834 50.5339 57.3653 50.5801 57.3587 50.585C57.3356 50.5553 57.4016 50.5652 57.3933 50.5323C57.3917 50.5026 57.4972 50.5372 57.4972 50.5075C57.5137 50.4448 57.2861 50.0935 57.4049 50.0176C57.4659 50.0572 57.621 50.3623 57.6754 50.3904C57.8585 50.1281 57.677 49.7735 57.5236 49.6068C57.4857 49.5656 57.3653 49.62 57.3042 49.5623C57.2943 49.0114 57.3884 48.5214 57.3141 48.307C57.517 47.5647 58.8944 48.7903 58.774 47.5713C59 47.6406 59.5476 47.6538 59.7703 47.7857C59.6384 47.2892 59.0082 47.6224 59.1699 47.1012C59.2408 47.2348 59.4124 47.276 59.5691 47.2876C59.5509 47.2612 59.5212 47.1111 59.48 46.9082C59.5081 46.8686 59.5212 46.9527 59.5328 46.8999C59.5641 46.9478 59.4091 46.9577 59.447 47.0517C59.4817 47.1935 59.6714 47.1935 59.7192 47.1721C59.8264 47.4344 59.9303 47.5564 60.0936 47.5482C60.1695 47.5449 60.3163 47.5894 60.3741 47.5284C60.7172 47.9936 61.0059 48.4357 61.25 48.8481C61.2615 48.9124 61.1659 48.9949 61.1758 49.074C61.2022 49.3215 61.1362 50.006 61.4793 49.7141C61.542 49.6613 61.6376 49.6976 61.6426 49.5953C61.9478 49.4106 62.2034 49.1582 62.4542 49.3083C62.6026 49.5854 62.3651 50.1759 62.596 50.4399C62.7659 50.364 62.6439 50.0192 62.5944 49.8708C62.601 49.8543 62.8336 49.7685 62.8385 49.7537C63.0332 49.9021 63.3383 50.0093 63.5841 50.1562C63.7045 49.8972 63.6171 49.4716 63.4258 49.3957C63.3152 49.1928 63.18 48.9173 63.1767 48.8481C63.3235 49.0213 63.5313 49.6596 63.853 49.3759C63.7969 49.0905 63.7573 48.4373 63.7953 47.8468C63.8629 47.8418 63.7953 47.9886 63.8431 48.0002C63.9305 48.0216 64.1318 47.9787 64.1384 47.9787C64.3875 47.9639 64.5178 47.7956 64.4336 47.5284C64.371 47.3255 63.8678 47.2496 63.66 47.0533C63.6864 46.8092 63.8233 46.6591 63.848 46.5403C64.0081 46.664 64.0773 46.8273 64.2687 46.8719C64.2852 46.7812 64.2555 46.603 64.2901 46.4991C64.3693 46.3424 64.653 46.1593 64.6332 45.9036C64.6662 45.8689 64.5376 45.8426 64.5343 45.8656C64.5623 45.6149 64.4287 45.412 64.1978 45.3196C64.1384 45.0953 64.2324 44.7456 64.1417 44.5213C64.1268 44.4569 64.0493 44.4701 64.0476 44.4041C64.0344 44.4239 64.1466 44.2491 64.1367 44.2738C64.1235 44.2392 64.2208 44.3761 64.2076 44.3415C64.2093 44.2837 64.1318 44.1452 64.0955 44.1435C64.0608 44.0676 63.9289 44.1039 63.8926 44.033C63.9107 43.9555 63.919 43.9258 63.9619 43.8548C64.2571 43.8928 64.3743 43.5051 64.2456 43.3633C64.2868 43.3633 64.2175 43.487 64.2307 43.5002C64.2439 43.3682 64.0212 43.1356 63.9074 42.9014C63.9157 42.5187 63.3383 42.0585 63.1816 41.8308ZM45.5528 44.4932C45.5544 44.4866 45.5561 44.447 45.5561 44.4404C45.561 44.447 45.6963 44.4833 45.7012 44.4899C45.6963 44.4916 45.5577 44.4932 45.5528 44.4932ZM49.4441 50.1726L49.416 50.1512C49.4177 50.1512 49.4787 50.0407 49.4787 50.0407C49.4787 50.039 49.4441 50.171 49.4441 50.1726ZM48.6111 47.695C48.6078 47.6868 48.5847 47.6488 48.5814 47.6422C48.6144 47.6307 48.7678 47.7197 48.7744 47.7313C48.7513 47.7445 48.6243 47.6868 48.6111 47.695ZM53.1012 50.6923C53.1193 50.6725 53.1638 50.6312 53.1853 50.618C53.1721 50.6395 53.1259 50.6791 53.1012 50.6923Z" fill="#E6E6E6"/>
</g>
<g opacity="0.72">
<path d="M67.9274 49.9455C68.0907 49.6783 68.0264 47.4745 67.4424 46.6101C66.1426 47.5141 66.7826 51.1118 67.2329 52.7201C67.5447 52.6079 67.7657 50.9171 68.028 51.2421C67.7674 51.2536 67.6882 51.153 67.7905 50.9386C67.9323 50.9649 68.0676 51.0161 68.193 51.0903C68.1451 50.8148 68.1055 50.1897 67.9274 49.9455C68.066 50.1369 67.9505 49.9076 67.9274 49.9455Z" fill="#E6E6E6"/>
<path d="M66.8313 46.7452C66.6812 46.8194 66.6532 47.3258 66.894 47.377C67.115 46.1002 66.9286 46.2767 66.668 45.1979C67.0111 45.188 67.181 45.4585 67.374 45.3216C67.2322 45.188 67.0788 45.0692 66.9154 44.9637C67.0656 44.9554 67.214 44.9488 67.3641 44.9439C67.1959 44.063 66.3167 43.9607 66.5443 43.1194C66.1748 42.5982 65.8746 43.7628 66.023 43.6242C65.5612 43.3553 65.2444 41.6744 64.1211 41.62C64.5071 43.3108 66.4222 45.5525 66.8313 46.7452C66.8363 46.7419 66.8247 46.7254 66.8313 46.7452Z" fill="#E6E6E6"/>
<path d="M60.5272 45.8283C59.9614 46.8691 61.964 48.6952 62.4209 47.2881C62.5281 47.491 62.6947 47.623 62.9191 47.6857C62.957 47.5883 63.2671 46.8378 63.3513 46.7768C64.3707 48.1245 64.1761 43.7531 63.0593 45.0893C63.1781 44.2282 61.9013 42.1629 60.7054 42.671C60.8489 42.9531 61.0732 43.1296 61.3784 43.2038C61.2778 43.2698 61.1788 43.3358 61.0782 43.4018C61.7644 43.3952 62.1636 44.3948 62.025 45.0315C62.317 45.0579 60.938 44.2793 61.2596 44.6505C61.2464 44.2958 61.3058 43.9379 61.2745 43.5717C61.2563 43.5783 60.5784 43.9527 60.646 43.8125C60.8192 44.1457 60.9578 44.4938 61.06 44.8567C60.9215 44.9375 60.3705 44.0847 60.2979 44.6043C60.2732 44.7626 59.201 46.0427 60.5272 45.8283C60.2831 46.2786 60.1775 45.886 60.5272 45.8283Z" fill="#E6E6E6"/>
<path d="M64.8359 48.8613C64.8689 48.8531 64.9118 50.0903 64.9184 50.0837C64.6 50.2964 64.3658 50.2008 64.2124 49.7983C63.9435 50.1826 64.9497 51.3439 63.9435 51.24C63.4849 49.6284 61.7034 50.6923 61.0633 50.0078C61.1409 49.9583 61.446 49.8049 61.3586 49.6597C61.1013 50.2668 60.618 49.4684 60.4992 49.9715C60.4448 49.8956 61.1244 51.4231 60.8819 51.5963C60.8044 51.499 60.7037 51.4511 60.58 51.4544C60.6938 51.2911 60.7565 51.1097 60.7697 50.9101C60.7747 50.9249 60.0126 52.1951 60.0357 52.3782C60.1412 52.337 60.2485 52.2941 60.3524 52.2512C59.5688 51.367 60.2303 51.626 60.4118 50.1694C60.1676 50.3558 60.0703 50.3492 60.1214 50.148C59.7239 50.3195 59.333 50.5076 58.9486 50.7105C59.1565 50.6198 59.295 50.4697 59.3676 50.2585C58.8595 50.2453 59.0063 50.1661 59.0624 49.6251C59.3033 49.7587 59.5523 49.7653 59.8064 49.6432C59.8707 49.4123 59.7882 49.2473 59.5573 49.1484C59.7206 49.1154 60.0786 49.2242 60.2534 48.8844C59.8592 48.7508 59.0443 48.5826 58.9799 47.7792C58.6814 47.7627 58.49 47.898 58.4092 48.185C58.6517 48.1454 58.1057 46.8456 58.1156 46.7087C57.7659 46.7202 56.7464 46.8852 57.0566 47.5615C56.7102 47.0287 56.4446 47.8419 56.4677 48.0712C56.1114 47.8188 55.5142 47.3916 55.308 47.22C55.1249 47.0666 54.9055 45.7882 54.5558 46.227C54.5195 45.1086 54.9814 45.0442 54.0907 44.2508C54.5278 43.9522 54.4057 43.2281 53.6073 43.1605C53.5315 43.9819 53.901 43.5217 53.2659 43.7427C53.3022 43.4854 53.4391 43.3023 53.6766 43.1951C53.1586 43.5184 52.9723 43.3287 53.1141 42.6276C51.6839 42.5897 54.2441 42.8305 52.9937 42.2268C52.6093 42.4792 52.2794 42.7942 52.004 43.1703C51.773 42.3654 51.2633 42.9543 51.2518 42.2911C51.2155 42.6821 51.0241 42.9394 50.6761 43.0648C50.5738 42.7266 50.6579 42.4429 50.9301 42.2103C48.6867 42.7712 50.9548 41.5422 50.1383 41.4152C50.1433 41.6099 49.5412 42.428 49.6187 42.3076C48.9968 42.24 47.9856 42.8157 47.5633 42.8701C48.3947 42.7613 47.5996 44.8776 47.5914 44.8496C47.6508 44.8298 47.7003 44.7952 47.7398 44.7457C47.6211 44.9387 47.6821 45.0162 47.9262 44.9766C47.9361 44.9535 47.5139 45.3412 47.5056 45.1993C47.5287 45.5606 48.1143 45.455 47.4875 45.7074C47.659 45.4434 47.8471 45.6678 48.0533 46.3787C47.7382 46.3771 47.2648 46.4348 47.2367 46.8901C47.245 46.7664 48.3485 48.4588 48.3733 48.4671C47.7052 48.3516 46.7551 48.9834 47.5683 49.597C47.9889 49.0015 48.3353 49.2671 48.7675 49.1962C48.8154 50.0721 47.9147 49.371 48.8253 50.6445C48.8269 49.6119 49.5989 50.0144 50.1367 50.0193C49.9503 50.1315 49.7474 50.1892 49.5296 50.1925C50.0723 50.4861 50.1433 50.7682 49.7408 51.0388C49.2228 50.8276 49.5098 50.3789 49.0694 51.0058C48.6389 50.5818 48.8236 50.5175 48.3403 50.5257C47.9889 50.1562 48.0698 49.8511 48.1126 49.5607C47.9708 49.6647 47.8157 49.7125 47.7217 49.7851C47.5683 49.663 46.4895 49.0527 46.1942 49.1121C47.1444 49.5492 45.8231 49.889 45.7422 49.9286C45.8923 50.2898 46.1876 51.0783 45.9253 50.8853C46.1431 50.8589 45.922 50.953 45.8841 50.788C45.8066 51.334 45.7934 51.4676 45.8412 51.1905C45.6663 51.1278 45.2639 51.819 45.2292 51.2087C44.83 51.1592 44.5282 51.1014 44.2048 50.8771C44.4259 50.567 44.6337 50.247 44.83 49.9187C44.3533 50.5241 43.969 50.633 43.6737 50.2437C43.9492 49.9055 45.7208 49.3545 45.3876 48.736C45.5443 48.6007 44.1537 48.2609 44.1488 48.2526C43.197 46.9627 43.7298 48.3203 43.6786 46.6955C43.6456 45.6397 44.6189 45.0706 44.2461 43.6487C43.4823 44.043 43.9871 44.7308 43.5005 45.0838C43.2118 44.5444 43.0749 42.6936 43.6968 42.6821C43.4807 42.5765 43.7364 42.7266 43.7298 42.6689C43.6506 42.4891 43.5219 42.3967 43.3438 42.3918C43.5005 42.3868 43.5269 42.4412 43.4229 42.5551C43.7578 42.4165 42.7169 40.437 42.5998 40.277C42.5965 40.6069 42.4777 40.8808 42.2402 41.0936C42.2023 41.1166 42.2056 39.8234 41.7618 40.0147C41.7404 40.1187 42.1379 40.7076 42.1132 40.856C41.9779 40.856 41.8427 40.8626 41.7074 40.8758C41.8625 41.0078 41.8377 41.8359 41.455 41.5686C42.9644 39.8564 39.8418 40.2209 40.0545 40.3595C40.3234 40.4882 40.6038 40.5591 40.8991 40.5723C40.8298 40.2127 39.5102 41.0903 39.3337 41.3707C39.3155 41.303 38.8207 40.31 38.5798 40.3067C38.207 40.3034 38.4281 40.8989 38.4297 41.0127C38.5683 41.3278 37.2387 40.4766 37.3295 40.404C36.8 40.8329 37.219 43.4574 36.9682 43.5382C36.9649 43.0136 36.8511 42.5138 36.6251 42.0437C36.8264 42.5287 36.7587 42.8751 36.4239 43.0829C36.475 42.6755 36.3463 42.6276 36.0395 42.9378C36.0395 42.9361 36.3018 43.652 36.4404 43.5398C34.8881 42.2169 36.216 44.3663 36.0659 44.6121C35.924 44.4207 35.7063 43.7988 35.251 43.9737C35.2395 43.9786 35.3187 44.5081 35.2246 44.6714C35.6271 44.6649 36.0065 44.2063 35.7739 45.1482C35.3137 45.0855 35.3731 44.6731 34.8386 44.5873C34.9046 44.5411 34.8914 44.5675 34.799 44.6648C35.5677 43.4656 34.8469 41.793 35.3302 41.0721C35.6123 41.2024 36.5707 40.0642 36.6812 41.4532C37.1612 41.0837 36.4832 39.9916 36.4882 39.5628C36.4898 39.4242 38.4611 38.6654 36.3612 39.2955C36.5327 39.2048 36.5129 39.246 36.3034 39.4225C38.471 39.3401 34.3207 38.7363 35.1735 39.2807C35.1702 38.8947 35.345 38.6143 35.6981 38.4394C35.1488 38.6605 35.5018 37.1956 35.8234 36.6084C34.2613 38.4625 33.3771 41.1463 32.1053 42.885C32.0146 42.8124 31.9222 42.7398 31.8315 42.6656C31.5775 43.0384 31.8859 44.5246 31.6302 44.7836C31.3911 44.7622 31.2508 44.6533 31.2113 44.4554C31.2294 44.3679 31.81 44.1188 31.5956 44.3861C31.5065 44.2739 31.4174 44.1617 31.33 44.0496C31.3168 43.9753 31.0991 45.9696 31.4158 45.8591C31.3795 45.742 31.3432 45.6249 31.3086 45.5078C31.5181 45.9927 31.7672 45.8888 32.0558 45.1977C32.2554 45.0805 32.0426 46.6922 32.1301 46.608C31.7507 46.1 32.5474 47.0617 32.2439 47.5829C31.683 47.7495 31.6797 45.9631 31.4867 46.7466C31.2805 46.3507 31.1024 45.9416 30.9556 45.5193C31.1073 46.0059 31.0018 46.1231 30.6422 45.8707C30.657 45.9367 30.5564 48.2724 30.5828 48.2724C30.591 48.1421 30.6108 48.0135 30.6455 47.8881C30.7329 47.865 29.8784 50.7385 29.9807 50.9348C29.8603 50.7039 30.3337 51.7695 30.2463 51.6837C30.2034 51.2285 30.299 51.7629 30.0961 51.4709C29.499 51.9543 32.1845 57.6188 32.1235 57.891C32.3643 57.8844 32.2439 57.8465 32.4616 57.5364C33.2534 58.8065 32.7668 58.5212 32.3198 58.4981C32.4435 58.541 32.5672 58.5838 32.6909 58.6251C32.5441 58.6416 32.4468 58.7306 32.4006 58.8923C32.2884 58.9137 34.8469 61.0219 34.8716 61.0862C34.6489 60.8289 34.4609 60.5485 34.3058 60.2433C34.6423 60.0899 34.9244 60.9543 35.1669 61.0697C34.903 61.073 34.9013 60.9609 35.1586 60.7316C35.3253 61.0862 34.6852 61.9192 35.1586 62.1518C35.3813 61.652 35.7574 62.3729 36.1715 62.6813C36.122 62.4224 35.9076 61.3139 35.8333 61.1225C36.8165 61.4755 37.0804 61.4244 38.0355 62.3844C37.1167 61.4623 38.0173 64.1462 38.047 64.2121C38.5716 65.3635 39.1522 65.7743 40.0974 66.3236C39.6636 65.7479 40.5412 66.4357 41.0162 66.4671C40.9964 65.6456 41.0575 65.7066 41.1449 65.2827C41.1268 65.3718 42.0208 64.8076 41.5919 64.4662C41.3956 64.519 41.2043 64.5849 41.0162 64.6625C40.6203 64.2237 40.7309 63.9779 41.3478 63.9284C41.3198 63.6826 39.1572 64.2006 39.6405 63.2669C39.7725 63.0129 40.7292 62.6302 41.003 62.8249C41.0294 62.1535 40.2838 62.843 41.0525 62.4916C40.9074 61.9836 40.0545 61.746 40.8859 62.1106C40.8381 61.8648 40.8496 61.624 40.9222 61.3897C41.5837 61.5596 42.1528 62.7556 41.6233 63.1366C41.9977 62.8677 42.7417 63.1779 43.0238 63.5474C42.9479 63.7948 42.7879 63.968 42.5404 64.0637C42.0225 63.4929 42.5041 63.8047 42.3128 63.3808C43.0155 63.7849 42.8374 64.6229 43.5549 64.9511C43.6968 65.0171 46.6973 65.0815 47.0817 64.6377C46.6198 64.8472 47.3885 63.4517 47.3143 63.5391C47.0503 63.5771 46.8326 63.7024 46.6627 63.9136C47.0041 64.3144 46.4812 61.073 46.6165 61.6124C46.6198 61.6223 45.2424 61.3221 45.0511 61.2215C45.3876 61.1473 45.7142 61.0367 46.026 60.8899C46.1332 60.5138 45.5261 60.687 45.3727 60.5122C45.5789 60.367 44.185 58.2407 43.5681 58.4882C43.4147 58.8412 43.4955 59.0738 43.8073 59.1859C43.3372 60.3621 43.9063 60.2895 44.0366 61.4838C43.9178 60.3934 40.4851 59.8771 40.65 58.5921C41.8955 58.3776 41.3231 57.1586 40.4438 56.5879C40.5478 56.8271 40.6995 57.0217 40.8991 57.1685C40.2706 57.477 40.6698 56.7759 40.0479 56.926C40.1172 58.3958 40.6484 57.1636 39.8813 57.2526C39.7345 57.4687 39.7906 57.6403 40.0479 57.769C39.3337 58.2226 36.8511 55.6344 37.8672 56.1936C37.7749 55.9561 37.5983 55.839 37.3377 55.8439C37.4548 55.5701 37.6594 55.4183 37.9547 55.3853C37.8705 54.5441 37.0408 55.6163 36.9963 55.8208C37.1282 55.6773 35.896 55.9462 35.9686 55.9973C35.8498 55.6971 35.957 55.5074 36.2886 55.4299C36.0643 55.3342 35.1949 55.4579 35.0267 55.2352C35.2626 55.0736 35.4688 54.8806 35.6453 54.6546C35.1834 54.9433 34.8617 54.869 34.6786 54.4335C35.4919 54.1119 34.5582 54.5177 34.6539 54.1746C34.8848 54.3082 35.1174 54.3098 35.35 54.1779C35.1652 53.8018 35.0399 53.4059 34.9755 52.9918C35.19 53.1733 35.4242 53.3217 35.6783 53.4339C35.8267 53.1353 35.9224 52.8186 35.9636 52.4854C36.3958 53.2475 36.3166 54.2076 36.9303 54.7107C37.1348 54.8773 38.8867 55.0175 38.8141 54.5523C38.8537 54.6348 37.6049 54.3956 37.5654 54.394C37.6 54.3775 38.0635 54.1597 38.0718 54.1383C38.2219 53.7424 37.275 53.9783 37.2107 53.9684C37.1893 53.1716 37.7501 53.8529 37.4301 52.8879C37.2965 52.4838 37.0672 52.3716 36.6927 51.6854C37.4895 52.6091 36.861 50.7517 37.1546 51.0008C36.9814 50.5934 37.8408 51.2796 37.9613 51.4792C38.2153 51.2284 38.4297 50.9447 38.6046 50.6313C38.6145 50.9563 38.5848 50.9381 38.5172 50.5752C38.4858 50.5868 39.2281 50.9645 39.078 50.7138C39.0995 49.7554 38.2285 51.6194 38.6887 49.95C38.6442 50.2503 38.6376 50.2189 38.6673 49.8577C38.7085 49.9797 39.9539 51.1691 40.231 50.9167C40.2294 50.9183 39.8912 49.4634 39.431 49.917C39.53 49.5146 39.7494 49.1912 40.0892 48.9504C40.1849 50.0012 40.5841 50.8458 40.5461 51.8536C40.7226 52.0153 41.3082 50.7501 40.7622 50.6214C40.7589 50.7963 40.7836 50.9662 40.8381 51.1328C40.655 51.1212 40.4735 51.1229 40.2921 51.1427C40.302 50.7022 40.4273 50.2981 40.6665 49.9319C40.6401 50.2008 40.716 50.4284 40.8975 50.6165C40.8628 50.1364 40.9156 49.6564 40.8595 49.1731C41.0624 49.5212 41.1202 49.8857 41.0344 50.2684C41.9086 49.7851 41.14 51.2565 41.4121 51.1064C41.3659 50.6379 42.2996 50.4894 41.8064 49.9385C42.0126 50.087 42.1214 50.0144 42.1297 49.7207C42.1379 49.7702 42.1891 51.5683 42.9099 50.8606C42.9594 50.2272 43.0271 50.049 43.1838 49.4717C42.9396 49.5459 43.0205 50.8293 43.0864 50.8144C42.7912 51.3819 43.2497 50.8326 43.0666 51.4594C42.8077 51.4 42.5569 51.3142 42.3144 51.2004C42.5734 51.7085 43.7661 51.8866 43.4988 51.273C43.4592 51.2845 44.1521 51.6309 43.3537 51.9658C43.5252 52.0499 43.5005 53.1271 43.5005 53.33C42.4662 53.6335 43.9261 54.5457 42.9479 54.9185C43.1046 55.0241 43.2382 55.1561 43.3504 55.3128C43.1145 55.3787 42.8819 55.448 42.6493 55.5256C42.5371 55.2567 42.2913 54.874 42.6229 55.3342C42.4118 55.3342 42.2402 55.2484 42.1099 55.0769C42.321 54.8542 42.4052 54.5672 42.9528 54.3923C42.9314 54.3296 41.9581 53.363 41.8509 53.3514C42.1214 53.9948 41.5359 53.9123 41.1812 53.6154C40.5032 54.1746 41.9235 54.7552 41.5507 54.9416C41.7503 55.0934 40.8381 53.9568 41.2818 55.1956C41.5655 54.9746 41.4237 54.9086 40.8595 54.9993C40.975 55.7548 41.7767 55.7911 42.0885 55.8736C42.26 56.1161 42.001 56.5697 42.6097 56.9128C42.6922 56.2975 43.0056 56.4427 43.3801 56.7561C43.3141 56.9739 43.6555 55.0802 43.9722 56.5664C44.223 56.4262 44.8201 55.6938 44.8647 55.3771C45.0544 55.5998 45.2804 55.7763 45.5426 55.9066C45.3364 55.8621 45.8511 55.3573 46.0424 54.9202C45.4255 56.3338 44.0663 52.7741 45.216 53.6352C45.508 53.071 44.4011 53.3069 44.3846 53.3085C44.2164 52.9852 44.9471 53.0133 44.4374 52.9374C44.7228 53.2178 45.7323 52.337 45.7637 52.0714C46.0243 52.266 46.2107 52.5184 46.3262 52.8285C46.3625 52.459 46.3295 52.0945 46.2255 51.7365C46.2602 51.7481 49.3993 52.9258 49.231 52.4194C50.4402 53.2739 50.3742 47.4592 49.6286 49.3991C49.6632 49.3694 49.5643 48.6749 49.5214 48.6238C50.1367 48.8811 50.8179 48.9059 51.2913 49.0032C51.161 49.3958 51.2683 49.6003 51.6097 49.6135C52.3388 48.891 52.0914 48.8366 53.0168 49.1863C52.832 49.3776 52.7347 49.6102 52.7265 49.8841C52.6423 49.5624 52.2415 49.3084 51.9561 49.475C52.5797 50.8804 51.4431 49.7207 51.265 50.7468C51.6328 50.8062 52.6275 52.6685 52.5698 52.7147C52.0782 52.9341 52.1821 53.523 52.2926 54.229C53.4506 53.2129 53.6073 55.4233 54.9715 55.4942C55.5159 55.5223 54.9897 53.9997 55.5604 55.034C55.4796 54.7552 55.4598 54.4731 55.5027 54.1861C55.5769 54.6232 55.4383 55.7416 56.146 55.7845C57.0335 55.8373 55.9151 53.8232 56.7497 54.7767C57.4426 54.3115 56.2334 53.391 57.436 52.6817C57.7873 52.4755 59.2538 52.6834 59.5952 53.1254C59.3808 52.8764 59.2802 52.591 59.2917 52.2677C59.4022 53.2376 59.7091 52.1901 59.6942 52.2149C59.747 52.4953 60.4233 54.5919 60.4926 54.7503C60.9875 55.8835 60.7961 54.5935 61.5021 55.5305C61.3718 55.8885 61.2794 56.2563 61.2267 56.6357C61.9508 56.6077 60.9677 55.0802 62.2312 56.7363C62.67 56.3107 62.1669 55.867 62.3253 55.3721C62.2741 55.7482 62.4176 55.994 62.7541 56.1111C62.868 55.613 63.0329 55.133 63.2474 54.6694C63.1979 54.6546 63.8791 55.5602 63.9451 54.61C63.7983 54.3445 63.6202 54.102 63.409 53.8842C63.4107 53.8809 65.5287 51.3934 65.2631 50.6692C65.24 50.661 64.9349 49.2886 64.8359 48.8613C64.8986 49.1302 64.8144 48.8679 64.8359 48.8613ZM47.786 44.843C47.8157 44.7952 48.0863 44.937 47.786 44.843C47.7893 44.8381 47.791 44.8447 47.786 44.843ZM49.3102 51.5534C49.1502 51.4891 49.6929 51.3852 49.3102 51.5534V51.5534ZM49.4356 48.9455C49.4422 49.0114 49.6913 48.9009 49.4356 48.9455C49.4339 48.9372 49.4504 48.9422 49.4356 48.9455ZM52.4658 53.3844C52.4906 53.3729 52.545 53.3514 52.5681 53.3465C52.5483 53.3613 52.4922 53.3811 52.4658 53.3844Z" fill="#D0D4E6"/>
</g>
<path d="M33.639 105.785C33.4088 105.785 33.208 105.801 33.0093 105.783C32.3315 105.714 31.9885 105.05 32.3378 104.456C32.4529 104.26 32.6244 104.082 32.8043 103.944C33.6745 103.276 34.6765 102.919 35.758 102.793C36.44 102.714 37.0906 102.852 37.6847 103.212C37.8855 103.333 38.0863 103.452 38.2788 103.584C39.8937 104.68 41.6237 105.552 43.4981 106.101C44.4562 106.381 45.4373 106.624 46.4246 106.764C47.9141 106.975 49.4077 107.042 50.9222 106.87C52.4242 106.701 53.8948 106.444 55.3466 106.034C56.7712 105.632 58.1142 105.036 59.409 104.337C60.2918 103.86 61.1328 103.31 62.0176 102.839C62.6034 102.525 63.2142 102.237 63.846 102.036C65.3731 101.551 66.8186 101.948 68.2201 102.576C68.4586 102.682 68.6782 102.858 68.8644 103.042C69.1636 103.335 69.3518 103.686 69.174 104.126C68.9565 104.659 68.559 104.929 68.0172 104.904C67.852 104.896 67.6825 104.875 67.5235 104.833C66.6993 104.611 65.919 104.785 65.189 105.153C64.2643 105.617 63.3669 106.138 62.4569 106.636C61.0784 107.391 59.7333 108.213 58.3192 108.891C54.9596 110.5 51.3971 111.088 47.6861 110.83C44.3537 110.6 41.2681 109.602 38.398 107.908C37.5048 107.381 36.6074 106.864 35.7078 106.349C35.0594 105.979 34.3816 105.709 33.639 105.791V105.785Z" fill="white"/>
<path d="M34.8306 118.255C34.4269 118.181 33.9834 118.232 33.6152 117.991C33.6215 117.912 33.6152 117.874 33.6299 117.849C33.6466 117.824 33.6822 117.799 33.7115 117.799C34.1068 117.794 34.5001 117.797 34.8578 117.797C35.0649 117.989 35.0001 118.119 34.8306 118.255Z" fill="white"/>
<path d="M29.1207 115.355C28.4053 115.688 27.8614 115.456 27.1836 115.546C27.7861 115.175 28.2212 115.134 29.1207 115.355Z" fill="white"/>
<path d="M26.3192 115.831C26.3903 115.883 26.5262 115.977 26.5262 115.979C26.2271 116.427 25.6058 116.482 25.2607 116.09C25.2272 116.053 25.2314 115.956 25.2544 115.904C25.2774 115.854 25.3632 115.783 25.3945 115.795C25.5452 115.848 25.6832 115.931 25.8317 115.99C26.0472 116.076 26.2166 116.013 26.338 115.814L26.3212 115.831H26.3192Z" fill="white"/>
<path d="M17.2988 115.402C17.5917 115.27 17.8867 115.138 18.2234 114.988C17.9431 115.55 17.9389 115.55 17.3135 115.385L17.2988 115.402Z" fill="white"/>
<path d="M26.3377 115.815C26.1933 115.717 26.0511 115.618 25.7227 115.397C26.231 115.424 26.2707 115.633 26.3209 115.832L26.3377 115.815Z" fill="white"/>
<path d="M30.37 115.815C30.4411 115.583 30.5603 115.407 30.8532 115.395C30.7884 115.671 30.5729 115.738 30.3574 115.803L30.37 115.817V115.815Z" fill="white"/>
<path d="M32.1464 116.827C32.1381 116.854 32.1255 116.904 32.1234 116.902C32.0711 116.892 32.0209 116.875 31.9707 116.858C31.9791 116.831 31.9874 116.802 31.9979 116.775C32.0481 116.792 32.0983 116.808 32.1485 116.825L32.1464 116.827Z" fill="white"/>
<path d="M30.1285 117.972C30.0909 118.011 30.0532 118.053 30.0156 118.093C29.9863 118.047 29.9528 118.001 29.9319 117.951C29.9277 117.94 29.98 117.89 29.9925 117.894C30.0407 117.911 30.0825 117.942 30.1264 117.969L30.1285 117.972Z" fill="white"/>
<path d="M33.0748 117.326C33.0434 117.28 32.9807 117.229 32.989 117.192C32.9974 117.152 33.0706 117.125 33.1166 117.094C33.148 117.14 33.2129 117.19 33.2045 117.227C33.1961 117.267 33.1229 117.294 33.0769 117.326H33.0748Z" fill="white"/>
<path d="M17.5858 114.519C17.5335 114.552 17.4812 114.611 17.4269 114.613C17.385 114.615 17.3369 114.55 17.293 114.517C17.3453 114.485 17.3955 114.433 17.4478 114.431C17.4917 114.431 17.5377 114.488 17.5837 114.519H17.5858Z" fill="white"/>
<path d="M25.8342 117.573C25.8823 117.621 25.9367 117.676 25.989 117.73C25.9388 117.76 25.8781 117.822 25.8405 117.812C25.7714 117.791 25.715 117.728 25.6543 117.682C25.7045 117.653 25.7547 117.621 25.8342 117.573Z" fill="white"/>
<path d="M27.1285 114.694C27.1013 114.656 27.0741 114.62 27.0469 114.583C27.0678 114.568 27.1075 114.537 27.1096 114.541C27.141 114.574 27.1682 114.612 27.1954 114.65C27.1724 114.664 27.1515 114.679 27.1285 114.694Z" fill="white"/>
<path d="M27.9351 117.188L27.8535 117.152C27.8682 117.127 27.8786 117.087 27.8953 117.083C27.9205 117.077 27.9497 117.1 27.979 117.112C27.9644 117.137 27.9497 117.162 27.933 117.19L27.9351 117.188Z" fill="white"/>
<path d="M22.6047 115.671C22.6152 115.694 22.6361 115.721 22.6298 115.74C22.6257 115.759 22.5943 115.774 22.5734 115.788C22.5587 115.751 22.542 115.715 22.5273 115.678C22.5524 115.675 22.5796 115.673 22.6047 115.669V115.671Z" fill="white"/>
<path d="M35.0697 117.321C35.0614 117.296 35.0404 117.264 35.0488 117.246C35.0551 117.229 35.1032 117.214 35.1178 117.223C35.1367 117.233 35.1388 117.271 35.1471 117.296C35.1199 117.304 35.0948 117.312 35.0676 117.321H35.0697Z" fill="white"/>
<path d="M31.5005 117.589C31.5152 117.626 31.5361 117.656 31.5277 117.67C31.5194 117.687 31.4859 117.689 31.4629 117.699C31.4734 117.666 31.4838 117.635 31.5005 117.589Z" fill="white"/>
<path d="M13.2543 115.121C13.2313 115.134 13.2062 115.144 13.1832 115.157C13.1748 115.117 13.1664 115.079 13.1602 115.04C13.1874 115.042 13.2229 115.035 13.2417 115.048C13.2564 115.058 13.2522 115.096 13.2564 115.121H13.2543Z" fill="white"/>
<path d="M29.4525 117.174L29.373 117.18L29.4044 117.107L29.4525 117.174Z" fill="white"/>
<path d="M33.9501 117.032L34.0107 117.08L33.9375 117.105L33.9501 117.032Z" fill="white"/>
<path d="M24.051 114.451C24.0426 114.472 24.0322 114.495 24.0217 114.52C23.9904 114.49 23.9611 114.463 23.9297 114.434C23.9527 114.421 23.9778 114.398 24.0008 114.401C24.0196 114.401 24.0364 114.434 24.0531 114.451H24.051Z" fill="white"/>
<path d="M30.3571 115.8C30.3383 115.817 30.3195 115.831 30.3027 115.848C30.3257 115.835 30.3467 115.825 30.3697 115.812L30.3571 115.798V115.8Z" fill="white"/>
<path d="M24.6878 115.469L24.738 115.501L24.6836 115.524L24.6878 115.469Z" fill="white"/>
<path d="M17.3129 115.384C17.2815 115.382 17.2501 115.38 17.2188 115.377C17.2459 115.386 17.2731 115.394 17.3003 115.4L17.315 115.384H17.3129Z" fill="white"/>
<path d="M80.3809 102.506C80.3809 102.506 92.493 105.891 93.7585 99.0923C95.0241 92.2936 88.0519 88.0554 84.7927 87.7354C81.5335 87.4153 80.383 102.506 80.383 102.506H80.3809Z" fill="url(#paint3_linear_205_4310)"/>
<path d="M38.4104 119.326L38.3413 119.273C42.4226 119.857 46.6148 120.37 50.6354 119.455C56.7563 118.064 61.6722 113.575 67.4584 111.14C69.9394 110.096 72.5773 109.431 74.9788 108.216C77.3803 107 79.6103 105.09 80.3613 102.507C72.3995 99.8899 66.8874 92.4051 59.1118 89.2798C51.9596 86.4055 43.5209 87.6816 36.946 91.7064C30.8189 95.4572 26.0933 101.404 19.4933 104.239C16.9161 105.346 13.9372 105.923 11.3161 104.925C7.17204 103.348 5.28305 98.1578 6.24742 93.8297C7.50883 88.1648 13.0879 83.7802 18.8908 83.8932C18.5854 79.7115 20.2171 75.4273 23.2274 72.5091C23.9553 71.8041 24.8277 71.1472 25.838 71.0887C27.2208 71.0071 28.3839 72.0363 29.4424 72.9295C36.5632 78.9416 46.575 81.3578 55.6539 79.2596C61.0572 78.0108 66.6112 75.2641 71.8744 77.0129C76.2862 78.4793 79.307 83.3095 78.6961 87.9159C78.7233 87.7151 80.4491 87.5122 80.6646 87.487C81.357 87.4034 82.0578 87.3866 82.7544 87.4327C84.1539 87.5226 85.5345 87.8657 86.8231 88.4159C89.346 89.4932 91.7056 91.4638 92.875 93.9887C93.2746 94.8526 93.5256 96.0157 93.672 96.9613C93.8415 98.0595 93.7975 99.1829 93.5842 100.271C93.1511 102.494 92.032 104.588 90.4777 106.228C87.6097 109.253 83.5744 110.881 79.5517 111.973C75.529 113.065 71.3745 113.715 67.4856 115.215C63.306 116.828 59.5594 119.378 55.5263 121.328C51.4931 123.277 46.9181 124.639 42.5502 123.641C42.5502 123.401 42.5502 123.16 42.5502 122.918C43.1527 122.673 43.7572 122.426 44.3597 122.181C44.2384 121.884 43.8325 121.851 43.5146 121.899C43.1966 121.947 42.8243 122.014 42.5941 121.79C42.364 121.566 42.6904 121.043 42.9142 121.275C42.1841 120.999 41.4541 120.723 40.724 120.445C40.5022 120.361 40.2178 120.29 40.0567 120.462C39.8956 120.633 40.2449 120.97 40.3286 120.746C39.6906 120.273 39.0526 119.799 38.4166 119.326H38.4104ZM43.3995 123.541C43.4372 123.507 43.4748 123.474 43.5125 123.441C43.4937 123.422 43.4602 123.386 43.456 123.388C43.4142 123.417 43.3765 123.453 43.3389 123.489C43.3598 123.505 43.3786 123.524 43.3995 123.541ZM45.3554 123.248V123.164C45.3011 123.181 45.2467 123.194 45.1965 123.217C45.186 123.221 45.1965 123.269 45.1965 123.296C45.2509 123.279 45.3052 123.265 45.3575 123.248H45.3554ZM44.1212 123.12L44.1882 123.16V123.083L44.1212 123.12ZM45.14 121.254C45.094 121.284 45.0207 121.305 45.0103 121.342C45.0019 121.378 45.0584 121.432 45.0856 121.476C45.1316 121.447 45.2027 121.426 45.2153 121.386C45.2258 121.355 45.1672 121.298 45.1379 121.254H45.14ZM44.2405 121.238C44.2844 121.208 44.3283 121.181 44.3723 121.152C44.3346 121.118 44.299 121.081 44.2551 121.058C44.2426 121.052 44.1861 121.091 44.1882 121.1C44.1986 121.148 44.2216 121.192 44.2426 121.238H44.2405Z" fill="url(#paint4_linear_205_4310)"/>
<defs>
<radialGradient id="paint0_radial_205_4310" cx="0" cy="0" r="1" gradientUnits="userSpaceOnUse" gradientTransform="translate(48.9994 49.0002) scale(49 49)">
<stop offset="0.3818" stop-color="#B3C4CC"/>
<stop offset="0.47" stop-color="#839096"/>
<stop offset="0.5673" stop-color="#0C122B"/>
<stop offset="0.6585" stop-color="#0C122B"/>
<stop offset="0.7405" stop-color="#0C122B"/>
<stop offset="0.8106" stop-color="#0C122B"/>
<stop offset="0.8606" stop-color="#0C122B"/>
</radialGradient>
<radialGradient id="paint1_radial_205_4310" cx="0" cy="0" r="1" gradientUnits="userSpaceOnUse" gradientTransform="translate(48.2316 34.9409) rotate(40.7623) scale(29.6028 29.6028)">
<stop offset="0.0727" stop-color="white"/>
<stop offset="0.3686" stop-color="#FDFDFD"/>
<stop offset="0.5302" stop-color="#F5F5F5"/>
<stop offset="0.6594" stop-color="#E7E7E7"/>
<stop offset="0.7714" stop-color="#D4D4D4"/>
<stop offset="0.8713" stop-color="#BBBBBB"/>
<stop offset="0.9439" stop-color="#A3A3A3"/>
</radialGradient>
<radialGradient id="paint2_radial_205_4310" cx="0" cy="0" r="1" gradientUnits="userSpaceOnUse" gradientTransform="translate(49.0646 49.0641) rotate(40.7623) scale(19.5996)">
<stop offset="0.898" stop-color="white"/>
<stop offset="1" stop-color="#CDCDCC"/>
</radialGradient>
<linearGradient id="paint3_linear_205_4310" x1="80.3809" y1="95.5402" x2="93.9113" y2="95.5402" gradientUnits="userSpaceOnUse">
<stop stop-color="#6CABEF"/>
<stop offset="1" stop-color="#1036A1"/>
</linearGradient>
<linearGradient id="paint4_linear_205_4310" x1="5.99848" y1="97.5282" x2="93.7703" y2="97.5282" gradientUnits="userSpaceOnUse">
<stop stop-color="#99B4FE"/>
<stop offset="0.39" stop-color="#B3C0FD"/>
<stop offset="1" stop-color="#57A5EB"/>
</linearGradient>
</defs>
</svg>
