<svg width="19" height="22" viewBox="0 0 19 22" fill="none" xmlns="http://www.w3.org/2000/svg">
<path fill-rule="evenodd" clip-rule="evenodd" d="M15.1903 11.7004C15.1629 8.96829 17.4181 7.65786 17.5188 7.59195C16.2516 5.7387 14.2772 5.4844 13.5742 5.45576C11.8956 5.2849 10.2967 6.44464 9.44477 6.44464C8.59497 6.44464 7.279 5.48061 5.88686 5.50498C4.05499 5.5324 2.36702 6.5705 1.42432 8.21018C-0.477731 11.5096 0.937988 16.3997 2.79129 19.0779C3.69757 20.3867 4.77808 21.8598 6.19553 21.8058C7.56203 21.7519 8.07794 20.9218 9.72949 20.9218C11.3811 20.9218 11.8452 21.8058 13.2905 21.778C14.7597 21.7514 15.6912 20.444 16.5903 19.1298C17.6302 17.6091 18.0587 16.1369 18.0839 16.062C18.0521 16.0474 15.2198 14.9621 15.1903 11.7004ZM12.4744 3.68337C13.2262 2.77067 13.7356 1.50223 13.5973 0.239746C12.5121 0.283809 11.1987 0.961106 10.42 1.87296C9.72213 2.68207 9.11172 3.9702 9.27522 5.20995C10.4854 5.30375 11.7201 4.59439 12.4744 3.68337Z" fill="white"/>
</svg>
