<svg width="25" height="24" viewBox="0 0 25 24" fill="none" xmlns="http://www.w3.org/2000/svg">
<path d="M12.7685 5C14.3853 5 15.8698 5.55353 17.0548 6.47406L20.692 3.00409C18.5773 1.13995 15.8091 0 12.7685 0C8.16089 0 4.16516 2.59991 2.1543 6.40985L6.19873 9.60278C7.17847 6.91937 9.74597 5 12.7685 5Z" fill="#F44336"/>
<path d="M24.6636 13.5018C24.7261 13.0102 24.7676 12.5087 24.7676 12C24.7676 11.1422 24.6739 10.3068 24.5028 9.5H12.7676V14.5H19.2538C18.7291 15.8638 17.7948 17.0178 16.6056 17.8195L20.665 21.0243C22.817 19.1354 24.2896 16.4904 24.6636 13.5018Z" fill="#2196F3"/>
<path d="M5.76758 12.0001C5.76758 11.1566 5.92444 10.3517 6.19781 9.60284L2.15338 6.40991C1.27191 8.08008 0.767578 9.98022 0.767578 12.0001C0.767578 13.9973 1.26263 15.8764 2.12579 17.533L6.17535 14.336C5.91602 13.6045 5.76758 12.8205 5.76758 12.0001Z" fill="#FFC107"/>
<path d="M12.7668 19C9.72125 19 7.13721 17.0515 6.17456 14.3359L2.125 17.533C4.12604 21.3735 8.1366 24 12.7668 24C15.7946 24 18.5555 22.8752 20.6642 21.0243L16.6048 17.8195C15.508 18.5589 14.1952 19 12.7668 19Z" fill="#00B060"/>
<path opacity="0.1" d="M12.7669 23.7499C9.23523 23.7499 6.05963 22.2927 3.81445 19.9712C6.01227 22.4377 9.20337 23.9999 12.7669 23.9999C16.2975 23.9999 19.4622 22.4685 21.655 20.0406C19.4165 22.3245 16.265 23.7499 12.7669 23.7499Z" fill="black"/>
<path opacity="0.1" d="M12.7676 14.25V14.5H19.2538L19.3551 14.25H12.7676Z" fill="black"/>
<path d="M24.7618 12.147C24.7626 12.0977 24.7673 12.0493 24.7673 11.9999C24.7673 11.986 24.7651 11.9725 24.7651 11.9585C24.7644 12.0215 24.7612 12.0837 24.7618 12.147Z" fill="#E6E6E6"/>
<path opacity="0.2" d="M12.7676 9.5V9.75H24.5532C24.5374 9.66748 24.5202 9.58191 24.5028 9.5H12.7676Z" fill="#161616"/>
<path d="M24.5028 9.5H12.7676V14.5H19.2538C18.2451 17.1216 15.7448 19 12.7676 19C8.90161 19 5.76758 15.866 5.76758 12C5.76758 8.13397 8.90161 5 12.7676 5C14.1694 5 15.4615 5.43066 16.5561 6.14069C16.7236 6.24957 16.8965 6.35181 17.0539 6.47406L20.691 3.00409L20.609 2.94098C18.5045 1.11707 15.7711 0 12.7676 0C6.14014 0 0.767578 5.37256 0.767578 12C0.767578 18.6274 6.14014 24 12.7676 24C18.8853 24 23.923 19.4188 24.6636 13.5018C24.7261 13.0102 24.7676 12.5087 24.7676 12C24.7676 11.1422 24.6739 10.3068 24.5028 9.5Z" fill="url(#paint0_linear_258_140)"/>
<path opacity="0.1" d="M16.5561 5.89075C15.4615 5.18073 14.1694 4.75006 12.7676 4.75006C8.90161 4.75006 5.76758 7.88403 5.76758 11.7501C5.76758 11.7922 5.76815 11.8252 5.76888 11.8672C5.83632 8.05957 8.94379 5.00006 12.7676 5.00006C14.1694 5.00006 15.4615 5.43073 16.5561 6.14075C16.7236 6.24963 16.8965 6.35187 17.0539 6.47412L20.691 3.00415L17.0539 6.22412C16.8965 6.10187 16.7236 5.99963 16.5561 5.89075Z" fill="black"/>
<path opacity="0.2" d="M12.7676 0.25C15.7426 0.25 18.4505 1.34839 20.5469 3.1416L20.691 3.00409L20.581 2.90827C18.4765 1.08436 15.7711 0 12.7676 0C6.14014 0 0.767578 5.37256 0.767578 12C0.767578 12.0422 0.773438 12.0829 0.773865 12.125C0.841614 5.55585 6.18231 0.25 12.7676 0.25Z" fill="#161616"/>
<defs>
<linearGradient id="paint0_linear_258_140" x1="0.767578" y1="12" x2="24.7676" y2="12" gradientUnits="userSpaceOnUse">
<stop stop-color="white" stop-opacity="0.2"/>
<stop offset="1" stop-color="white" stop-opacity="0"/>
</linearGradient>
</defs>
</svg>
